<svg xmlns="http://www.w3.org/2000/svg" style="display: none;">

    <symbol id="icon-18" viewBox="0 0 512 512">
      <path d="m442 278c-18 0-27-9-36-16-7-7-13-13-26-13-12 0-18 6-26 13-8 7-17 16-36 16-18 0-28-9-36-16-7-7-13-13-26-13-13 0-19 6-26 13-8 7-18 16-36 16-19 0-28-9-36-16-8-7-14-13-26-13-13 0-19 6-26 13-9 7-18 16-36 16-19 0-28-9-37-16-7-7-13-13-26-13-4 0-7-3-7-7 0-4 3-8 7-8 19 0 28 9 37 16 7 7 13 13 26 13 12 0 18-6 26-13 8-7 17-16 36-16 18 0 28 9 36 16 7 7 13 13 26 13 12 0 18-6 26-13 8-7 18-16 36-16 18 0 28 9 36 16 8 7 13 13 26 13 13 0 19-6 26-13 8-7 18-16 36-16 19 0 28 9 36 16 8 7 14 13 26 13 13 0 19-6 26-13 9-7 18-16 37-16 4 0 7 4 7 8 0 4-3 7-7 7-13 0-19 6-26 13-9 7-18 16-37 16z"/>
    </symbol>
  
    <symbol id="icon-arrow-bottom" viewBox="0 0 512 512">
      <path d="m428 120l-172 168-171-168c-19-19-51-19-70 0-19 19-19 50 0 69l199 196c1 2 4 5 6 8 10 10 23 14 36 14 13 0 26-4 36-14 3-3 5-5 7-8l199-197c10-9 15-22 15-34 0-12-5-25-15-34-19-19-51-19-70 0z"/>
    </symbol>
  
    <symbol id="icon-arrow-left" viewBox="0 0 512 512">
      <path d="m393 427l-169-171 168-171c19-20 19-51 0-70-19-20-49-20-68 0l-196 198c-3 2-5 4-8 7-10 10-14 23-14 36 0 13 4 26 14 35 3 3 5 5 8 7l196 200c10 9 22 14 35 14 12 0 25-5 34-14 19-20 19-51 0-71z"/>
    </symbol>
  
    <symbol id="icon-arrow-left-line" viewBox="0 0 512 512">
      <path d="m466 216l-304 0 124-127c19-19 19-50 0-69-18-19-49-19-67 0l-192 196c-3 2-6 4-9 6-9 10-14 23-13 36-1 13 4 25 13 35 3 3 6 5 9 7l192 196c10 10 22 14 34 14 13 0 25-4 34-14 19-19 19-50 0-69l-124-127 303 0c23 0 42-19 42-42 0-23-19-42-42-42z"/>
    </symbol>
  
    <symbol id="icon-arrow-left-line-bottom" viewBox="0 0 512 512">
      <path d="m214 48l0 305-126-125c-20-19-51-19-70 0-19 19-19 49 0 68l196 192c2 3 4 6 7 8 9 10 22 14 35 14 13 0 26-4 35-14 3-2 5-5 7-8l196-193c10-9 15-21 15-34 0-12-5-24-15-34-19-18-50-18-69 0l-127 125 0-304c0-23-18-42-42-42-23 0-42 19-42 42z"/>
    </symbol>
  
    <symbol id="icon-arrow-left-line-top" viewBox="0 0 512 512">
      <path d="m298 468l0-304 127 124c19 19 50 19 69 0 20-19 20-49 0-68l-195-192c-2-3-4-5-7-8-10-9-22-14-35-14-13 0-26 5-36 14-2 3-4 6-6 8l-197 193c-9 10-14 22-14 34 0 12 5 25 14 34 19 19 50 19 69 0l127-124 0 303c0 23 19 42 42 42 24 0 42-19 42-42z"/>
    </symbol>
  
    <symbol id="icon-arrow-right" viewBox="0 0 512 512">
      <path d="m393 220c-2-3-5-5-8-7l-195-199c-19-19-50-19-69 0-19 20-19 51 0 71l168 170-169 172c-19 20-19 51 0 70 10 10 22 15 35 15 12 0 25-5 34-15l196-199c3-2 6-4 8-7 10-10 15-23 15-36 0-12-5-25-15-35z"/>
    </symbol>
  
    <symbol id="icon-arrow-right-line" viewBox="0 0 512 512">
      <path d="m494 222c-3-2-6-4-9-6l-192-196c-18-19-49-19-67 0-19 19-19 50 0 69l124 127-304 0c-23 0-42 19-42 42 0 23 19 42 42 42l303 0-124 127c-19 19-19 50 0 69 9 10 21 14 34 14 12 0 24-4 34-14l192-196c3-2 6-4 9-7 9-10 14-23 14-35 0-13-5-26-14-36z"/>
    </symbol>
  
    <symbol id="icon-arrow-top" viewBox="0 0 512 512">
      <path d="m86 393l171-169 171 168c20 19 51 19 70 0 20-19 20-50 0-69l-198-195c-2-3-4-6-7-9-10-9-23-14-36-14-13 0-26 5-36 14-2 3-4 6-6 9l-200 196c-9 9-14 22-14 34 0 13 5 25 14 35 20 19 51 19 71 0z"/>
    </symbol>
  
    <symbol id="icon-behance-logo" viewBox="0 0 512 512">
      <path d="m463 142l-129 0 0-32 129 0 0 32z m-214 131c8 12 12 28 12 46 0 19-4 36-14 51-6 10-14 18-23 25-10 8-22 13-35 16-14 3-29 4-45 4l-144 0 0-318 154 0c39 0 66 12 82 34 10 13 15 29 15 48 0 20-5 35-15 47-5 7-13 13-24 18 16 6 29 16 37 29z m-176-51l68 0c14 0 25-2 34-8 8-5 13-14 13-28 0-14-6-24-18-29-9-3-22-5-37-5l-60 0z m121 93c0-17-7-28-20-34-8-4-18-6-32-6l-69 0 0 85 68 0c14 0 24-2 32-6 14-6 21-20 21-39z m316-52c2 10 2 25 2 45l-166 0c1 23 9 39 24 48 9 6 20 9 33 9 13 0 24-4 33-11 4-3 8-9 12-15l61 0c-2 13-9 27-22 41-21 22-49 33-86 33-30 0-57-9-80-28-24-19-35-49-35-91 0-40 10-70 31-91 21-21 48-32 82-32 20 0 38 4 54 11 15 7 29 18 39 34 9 13 15 29 18 47z m-60 6c-1-16-6-28-16-36-9-9-21-13-35-13-16 0-27 5-36 13-8 9-14 21-16 36z"/>
    </symbol>
  
    <symbol id="icon-black-male-user-symbol-2" viewBox="0 0 512 512">
      <path d="m471 404l-2 3c-57 68-132 105-213 105-80 0-156-37-213-105l-2-3 1-2c11-72 48-129 105-162l4-3 3 4c27 28 63 44 102 44 39 0 75-16 102-44l3-4 4 3c57 33 95 90 106 162z m-215-148c71 0 128-58 128-128 0-71-57-128-128-128-70 0-128 57-128 128 0 70 58 128 128 128z"/>
    </symbol>
  
    <symbol id="icon-calendar-3" viewBox="0 0 512 512">
      <path d="m187 283c0-7-6-12-12-12l-41 0c-6 0-11 5-11 12l0 40c0 7 5 12 11 12l41 0c6 0 12-5 12-12z m101 0c0-7-5-12-12-12l-40 0c-7 0-12 5-12 12l0 40c0 7 5 12 12 12l40 0c7 0 12-5 12-12z m101 0c0-7-5-12-11-12l-41 0c-6 0-11 5-11 12l0 40c0 7 5 12 11 12l41 0c6 0 11-5 11-12z m-202 101c0-6-6-12-12-12l-41 0c-6 0-11 6-11 12l0 41c0 6 5 11 11 11l41 0c6 0 12-5 12-11z m101 0c0-6-5-12-12-12l-40 0c-7 0-12 6-12 12l0 41c0 6 5 11 12 11l40 0c7 0 12-5 12-11z m101 0c0-6-5-12-11-12l-41 0c-6 0-11 6-11 12l0 41c0 6 5 11 11 11l41 0c6 0 11-5 11-11z m73-327l0 62c0 28-23 51-51 51l-32 0c-28 0-51-23-51-51l0-62-144 0 0 62c0 28-23 51-51 51l-32 0c-28 0-51-23-51-51l0-62c-24 1-44 21-44 46l0 363c0 25 20 46 46 46l409 0c25 0 45-21 45-46l0-363c0-25-20-45-44-46z m-15 386c0 11-9 20-20 20l-343 0c-11 0-20-9-20-20l0-187c0-11 9-20 20-20l343 0c11 0 20 9 20 20z m-346-307l32 0c9 0 17-7 17-17l0-102c0-9-8-17-17-17l-32 0c-10 0-18 8-18 17l0 102c0 10 8 17 18 17z m278 0l31 0c10 0 18-7 18-17l0-102c0-9-8-17-18-17l-31 0c-10 0-18 8-18 17l0 102c0 10 8 17 18 17z"/>
    </symbol>
  
    <symbol id="icon-check-mark-2" viewBox="0 0 512 512">
      <path d="m230 427c-23 23-60 23-83 0l-130-130c-23-23-23-60 0-83 23-23 61-23 84 0l77 77c6 6 15 6 21 0l209-209c23-23 60-23 83 0 11 11 18 26 18 42 0 15-7 30-18 42z"/>
    </symbol>
  
    <symbol id="icon-dribbble-logo" viewBox="0 0 512 512">
      <path d="m256 0c-141 0-256 115-256 256 0 141 115 256 256 256 141 0 256-115 256-256 0-141-115-256-256-256z m157 133c25 31 41 71 43 114-29-6-57-9-82-9l0 0 0 0c-21 0-40 1-58 5-5-11-9-22-14-31 41-18 80-43 111-79z m-157-77c47 0 90 17 125 44-27 32-61 54-98 70-27-50-52-87-69-109 13-3 27-5 42-5z m-88 21c14 17 41 53 71 109-60 18-121 22-158 22-1 0-2 0-3 0l0 0c-6 0-11 0-16 0 15-58 54-105 106-131z m-112 179c0-1 0-2 0-3 6 0 13 1 22 1l0 0c40-1 111-4 182-26 3 8 7 17 11 26-47 16-85 41-112 66-27 25-45 49-55 65-30-35-48-80-48-129z m200 200c-44 0-85-15-119-40 7-11 23-33 47-57 25-23 59-48 104-62 15 42 29 91 39 146-22 8-46 13-71 13z m113-36c-10-49-23-94-37-134 13-2 27-3 41-3l1 0c24 0 50 3 78 10-10 52-40 98-83 127z"/>
    </symbol>
  
    <symbol id="icon-ellipse" viewBox="0 0 512 512">
      <path d="m256 0c-141 0-256 115-256 256 0 141 115 256 256 256 141 0 256-115 256-256 0-141-115-256-256-256z m0 481c-125 0-225-100-225-225 0-125 100-225 225-225 125 0 225 100 225 225 0 125-100 225-225 225z"/>
    </symbol>
  
    <symbol id="icon-equal" viewBox="0 0 512 512">
      <path d="m499 0l-486 0c-7 0-13 6-13 13 0 7 6 13 13 13l486 0c7 0 13-6 13-13 0-7-6-13-13-13z m-128 154l-358 0c-7 0-13 6-13 13 0 7 6 13 13 13l358 0c7 0 13-6 13-13 0-7-6-13-13-13z m128 0l-70 0c-7 0-13 6-13 13 0 7 6 13 13 13l70 0c7 0 13-6 13-13 0-7-6-13-13-13z"/>
    </symbol>
  
    <symbol id="icon-error" viewBox="0 0 512 512">
      <path d="m344 316l-60-60 60-60c8-8 8-20 0-28-8-8-21-8-28 0l-60 60-60-60c-8-8-20-8-28 0-8 8-8 21 0 28l60 60-60 60c-8 8-8 20 0 28 8 8 21 8 28 0l60-60 60 60c8 8 20 8 28 0 8-8 8-21 0-28z"/>
    </symbol>
  
    <symbol id="icon-error-circle" viewBox="0 0 512 512">
      <path d="m256 512c141 0 256-115 256-256 0-141-115-256-256-256-141 0-256 115-256 256 0 141 115 256 256 256z m0-465c115 0 209 94 209 209 0 115-94 209-209 209-115 0-209-94-209-209 0-115 94-209 209-209z m88 269l-60-60 60-60c8-8 8-20 0-28-8-8-21-8-28 0l-60 60-60-60c-8-8-20-8-28 0-8 8-8 21 0 28l60 60-60 60c-8 8-8 20 0 28 8 8 21 8 28 0l60-60 60 60c8 8 20 8 28 0 8-8 8-21 0-28z"/>
    </symbol>
  
    <symbol id="icon-facebook" viewBox="0 0 512 512">
      <path d="m512 85c0-45-40-85-85-85l-342 0c-45 0-85 40-85 85l0 342c0 45 40 85 85 85l171 0 0-193-63 0 0-86 63 0 0-33c0-57 43-109 96-109l69 0 0 85-69 0c-7 0-16 9-16 23l0 34 85 0 0 86-85 0 0 193 91 0c45 0 85-40 85-85z"/>
    </symbol>
  
    <symbol id="icon-facebook-circular-logo" viewBox="0 0 512 512">
      <path d="m256 1c-141 0-256 115-256 256 0 127 92 232 213 252l0-199-61 0 0-71 61 0 0-53c0-61 38-94 92-94 26 0 49 2 55 2l0 64-37 0c-30 0-36 15-36 35l0 46 71 0-9 71-62 0 0 201c127-15 225-123 225-254 0-141-115-256-256-256z"/>
    </symbol>
  
    <symbol id="icon-funnel" viewBox="0 0 512 512">
      <path d="m512 85c0-54-113-85-256-85-143 0-256 31-256 85 0 13 6 25 18 35l174 229 0 142c0 17 20 27 34 17l85-64c6-4 9-11 9-17l0-78 174-229c12-10 18-22 18-35z m-256-42c116 0 213 26 213 42 0 1 0 1 0 1-1 1-3 2-4 3-13 10-38 19-70 26-36 7-83 13-133 13 0 0-1 0-1 0-1 0-3 0-5 0-2 0-4 0-5 0 0 0-1 0-1 0-50 0-97-6-133-13-32-7-57-16-70-26-1-1-3-2-4-3 0 0 0 0 0-1 0-16 97-42 213-42z m21 373l-42 32 0-85 42 0z m11-96l-64 0-126-165c42 10 95 15 152 16 2 0 4 0 6 0 2 0 4 0 6 0 57-1 110-6 152-16z"/>
    </symbol>
  
    <symbol id="icon-hash-key" viewBox="0 0 512 512">
      <path d="m458 328l-61 0 19-146 42 0c46 0 46-71 0-71l-33 0 7-53c6-46-64-56-70-9l-8 62-146 0 6-53c6-46-64-56-70-9l-8 62-82 0c-46 0-46 71 0 71l73 0-19 146-54 0c-46 0-46 71 0 71l45 0-7 53c-6 46 64 56 70 9l8-62 146 0-6 53c-6 46 64 56 70 9l8-62 70 0c46 0 46-71 0-71z m-132 0l-147 0 20-146 146 0z"/>
    </symbol>
  
    <symbol id="icon-heart-2" viewBox="0 0 512 512">
      <path d="m374 31c-58 0-97 30-118 50-21-20-60-50-118-50-81 0-138 72-138 157 0 131 130 231 247 291 6 3 12 3 18 0 117-60 247-160 247-291 0-85-57-157-138-157z m-118 407c-98-51-216-140-216-250 0-61 38-117 98-117 47 0 85 28 101 52 4 6 10 10 17 10 7 0 13-4 17-10 0 0 34-52 101-52 60 0 98 56 98 117 0 110-118 199-216 250z"/>
    </symbol>
  
    <symbol id="icon-heart-3" viewBox="0 0 512 512">
      <path d="m374 31c-58 0-97 30-118 50-20-20-60-50-118-50-81 0-138 72-138 157 0 131 131 231 247 291 6 3 12 3 18 0 117-60 247-160 247-291 0-85-57-157-138-157z"/>
    </symbol>
  
    <symbol id="icon-info" viewBox="0 0 512 512">
      <path d="m335 92c0 37-30 67-67 67-38 0-68-30-68-67 0-37 30-68 68-68 37 0 67 31 67 68z m-67 405c-38 0-68-30-68-68l0-169c0-38 30-68 68-68 37 0 67 30 67 68l0 169c0 38-30 68-67 68z"/>
    </symbol>
  
    <symbol id="icon-info-circle" viewBox="0 0 512 512">
      <path d="m256 512c141 0 256-115 256-256 0-141-115-256-256-256-141 0-256 115-256 256 0 141 115 256 256 256z m0-465c115 0 209 94 209 209 0 115-94 209-209 209-115 0-209-94-209-209 0-115 94-209 209-209z m39 120c0 20-17 37-37 37-20 0-36-17-36-37 0-20 16-36 36-36 20 0 37 16 37 36z m-37 219c-20 0-36-16-36-36l0-92c0-20 16-37 36-37 20 0 37 17 37 37l0 92c0 20-17 36-37 36z"/>
    </symbol>
  
    <symbol id="icon-instagram-logo" viewBox="0 0 512 512">
      <path d="m373 0l-234 0c-77 0-139 62-139 139l0 234c0 77 62 139 139 139l234 0c77 0 139-62 139-139l0-234c0-77-62-139-139-139z m-119 394c-75 0-136-61-136-136 0-76 61-137 136-137 76 0 137 61 137 137 0 75-61 136-137 136z m138-239c-19 0-35-16-35-35 0-20 16-35 35-35 20 0 35 15 35 35 0 19-15 35-35 35z m-136 15c-48 0-86 38-86 86 0 48 38 86 86 86 48 0 86-38 86-86 0-48-38-86-86-86z"/>
    </symbol>
  
    <symbol id="icon-line-arrow-left" viewBox="0 0 512 512">
      <path d="m340 232l-259 0 100-101c9-10 9-25 0-34-9-9-25-9-34 0l-140 142c-9 9-9 25 0 34l140 142c5 5 11 7 17 7 6 0 12-2 17-7 9-10 9-25 0-34l-100-101 259 0c13 0 23-11 23-24 0-13-10-24-23-24z m148 0l-54 0c-13 0-24 11-24 24 0 13 11 24 24 24l54 0c13 0 24-11 24-24 0-13-11-24-24-24z"/>
    </symbol>
  
    <symbol id="icon-line-arrow-right" viewBox="0 0 512 512">
      <path d="m505 239l-140-142c-10-9-25-9-34 0-9 9-9 25 0 34l100 101-259 0c-13 0-23 11-23 24 0 13 10 24 23 24l259 0-100 101c-9 10-9 25 0 34 5 5 11 7 17 7 6 0 12-2 17-7l140-142c9-9 9-24 0-34z m-427-7l-54 0c-13 0-24 11-24 24 0 13 11 24 24 24l54 0c13 0 24-11 24-24 0-13-11-24-24-24z"/>
    </symbol>
  
    <symbol id="icon-linkedin-letters" viewBox="0 0 512 512">
      <path d="m6 170l110 0 0 330-110 0z m471 30c-23-25-54-37-92-37-14 0-26 1-38 5-11 3-21 8-29 14-8 6-14 12-19 17-4 6-8 11-13 18l0-47-109 0 0 16c0 11 0 44 0 99 0 55 0 127 0 215l109 0 0-184c0-11 2-20 4-27 5-11 12-21 21-28 10-8 21-12 35-12 19 0 33 7 42 20 9 13 14 31 14 55l0 176 109 0 0-189c0-49-11-86-34-111z m-415-189c-18 0-33 6-45 16-11 11-17 25-17 41 0 16 6 30 17 41 11 11 25 16 44 16l0 0c19 0 34-5 45-16 12-11 17-25 17-41 0-16-6-30-17-41-11-10-26-16-44-16z"/>
    </symbol>
  
    <symbol id="icon-menu-2" viewBox="0 0 512 512">
      <path d="m73 183c-40 0-73 32-73 73 0 41 33 73 73 73 41 0 74-32 74-73 0-41-33-73-74-73z m0 114c-22 0-40-18-40-41 0-23 18-41 40-41 23 0 41 18 41 41 0 23-18 41-41 41z m183-114c-41 0-73 32-73 73 0 41 32 73 73 73 41 0 73-32 73-73 0-41-32-73-73-73z m0 114c-23 0-41-18-41-41 0-23 18-41 41-41 23 0 41 18 41 41 0 23-18 41-41 41z m183-114c-41 0-74 32-74 73 0 41 33 73 74 73 40 0 73-32 73-73 0-41-33-73-73-73z m0 114c-23 0-41-18-41-41 0-23 18-41 41-41 22 0 40 18 40 41 0 23-18 41-40 41z"/>
    </symbol>
  
    <symbol id="icon-min" viewBox="0 0 512 512">
      <path d="m64 229c0-38 30-68 67-68l273 0c38 0 68 30 68 68 0 37-30 67-68 67l-273 0c-37 0-67-30-67-67z"/>
    </symbol>
  
    <symbol id="icon-minus" viewBox="0 0 512 512">
      <path d="m256 512c141 0 256-115 256-256 0-141-115-256-256-256-141 0-256 115-256 256 0 141 115 256 256 256z m0-465c115 0 209 94 209 209 0 115-94 209-209 209-115 0-209-94-209-209 0-115 94-209 209-209z m-93 211c0 12 10 23 23 23l140 0c13 0 23-11 23-23 0-13-10-24-23-24l-140 0c-13 0-23 11-23 24z"/>
    </symbol>
  
    <symbol id="icon-next-2" viewBox="0 0 512 512">
      <path d="m395 220c-3-3-5-5-8-7l-199-198c-19-20-51-20-70 0-19 19-19 50 0 70l171 171-172 171c-19 20-19 51 0 70 10 10 22 15 35 15 13 0 26-5 35-15l200-199c3-2 5-4 8-7 10-9 15-22 14-35 1-13-4-26-14-36z"/>
    </symbol>
  
    <symbol id="icon-notification" viewBox="0 0 512 512">
      <path d="m440 348l0-98c0-86-60-158-139-178 3-6 5-14 5-22 0-28-22-50-50-50-28 0-50 22-50 50 0 8 2 16 5 22-79 20-139 92-139 178l0 98c-19 7-33 25-33 47 0 28 22 50 50 50l85 0c8 38 42 67 82 67 40 0 74-29 82-67l85 0c28 0 50-22 50-50 0-22-14-40-33-47z m-184-315c9 0 17 8 17 17 0 9-8 17-17 17-9 0-17-8-17-17 0-9 8-17 17-17z m-83 217c0 10-8 17-17 17-9 0-17-7-17-17 0-64 53-116 117-116 9 0 17 7 17 16 0 9-8 17-17 17l0 0c-46 0-83 37-83 83z m83 229c-22 0-40-14-47-34l94 0c-7 20-25 34-47 34z"/>
    </symbol>
  
    <symbol id="icon-padlock" viewBox="0 0 512 512">
      <path d="m249 68c48-5 89 30 94 76 1 6 6 10 11 10l45 0c7 0 12-6 12-12-7-81-76-145-160-142-83 3-147 74-147 157l0 50-4 0c-22 0-41 18-41 41l0 223c0 23 19 41 41 41l312 0c22 0 41-18 41-41l0-223c0-23-19-41-41-41l-241 0 0-51c0-45 33-84 78-88z m-27 256c8-16 25-26 42-22 18 3 31 18 32 37 0 13-6 23-16 31-3 2-4 4-4 8 0 16 0 33 0 49 1 7-3 13-9 17-14 7-29-3-29-17l0 0c0-17 0-33 0-49 0-4 0-6-3-8-15-11-20-30-13-46z"/>
    </symbol>
  
    <symbol id="icon-pinterest-circular-logo-symbol" viewBox="0 0 512 512">
      <path d="m385 34c-40-23-82-34-129-34-46 0-89 11-128 34-40 23-71 54-94 94-23 39-34 82-34 128 0 52 14 99 42 141 29 42 66 74 111 94-1-24 1-44 5-59l33-140c-6-10-9-24-9-40 0-19 5-35 15-48 9-12 21-19 35-19 11 0 19 4 25 11 6 8 9 17 9 28 0 7-1 15-3 25-3 10-6 22-10 35-5 13-7 23-9 31-3 13-1 25 7 35 9 9 20 14 33 14 24 0 43-13 59-40 15-26 22-58 22-96 0-29-9-53-28-71-19-18-45-27-78-27-38 0-68 12-91 36-24 24-35 53-35 86 0 20 5 37 17 51 3 4 5 9 3 14 0 1-1 5-2 10-2 5-3 9-3 10-2 8-6 10-13 7-17-7-30-19-39-37-9-17-13-38-13-61 0-15 2-30 7-45 5-15 12-29 23-43 10-14 22-26 36-37 14-10 31-19 51-25 21-7 42-10 66-10 31 0 60 7 85 21 25 14 44 32 57 54 14 23 20 46 20 72 0 33-6 63-17 90-12 26-28 47-49 63-21 15-45 22-72 22-14 0-26-3-38-9-12-6-20-14-25-23-10 40-16 63-18 71-4 16-13 34-26 54 24 8 48 11 73 11 47 0 89-11 129-34 39-23 70-54 93-93 23-40 34-82 34-129 0-46-11-89-34-128-23-40-54-71-93-94z"/>
    </symbol>
  
    <symbol id="icon-play-button-5" viewBox="0 0 512 512">
      <path d="m478 128c-35-59-90-101-156-119-66-18-135-9-194 25-59 35-101 90-119 156-18 66-9 135 25 194 35 59 90 101 156 119 22 6 44 9 66 9 45 0 89-12 128-34 59-35 101-90 119-156 18-66 9-135-25-194z m-1 187c-15 59-53 109-106 140-53 30-115 38-174 22-59-15-109-53-140-106-30-53-38-115-22-174 15-59 53-109 106-140 36-20 75-30 115-30 20 0 40 2 59 8 59 15 109 53 140 106 30 53 38 115 22 174z m-98-83l-165-95c-8-5-19-5-28 0-8 5-14 14-14 24l0 190c0 10 6 19 14 24 5 3 10 4 14 4 5 0 10-1 14-4l165-95c9-5 14-14 14-24 0-10-5-19-14-24z m-14 25l-164 95c0 0-1 0-1 0-1 0-1-1-1-1l0-190c0 0 0-1 1-1 0 0 0 0 0 0 1 0 1 0 1 0l164 95c1 0 1 0 1 1 0 1 0 1-1 1z m48-123c-31-40-79-68-130-75-8-1-14 4-15 11-1 8 4 14 11 15 45 6 86 30 113 66 3 3 7 5 11 5 3 0 5-1 8-3 6-4 7-13 2-19z"/>
    </symbol>
  
    <symbol id="icon-plus" viewBox="0 0 512 512">
      <path d="m256 0c-7 0-13 6-13 13l0 70c0 7 6 13 13 13 7 0 13-6 13-13l0-70c0-7-6-13-13-13z m243 243l-486 0c-7 0-13 6-13 13 0 7 6 13 13 13l486 0c7 0 13-6 13-13 0-7-6-13-13-13z m-243-115c-7 0-13 6-13 13l0 358c0 7 6 13 13 13 7 0 13-6 13-13l0-358c0-7-6-13-13-13z"/>
    </symbol>
  
    <symbol id="icon-plus-sign" viewBox="0 0 512 512">
      <path d="m512 256c0 25-20 45-44 45l-167 0 0 167c0 24-20 44-45 44-12 0-23-5-32-13-8-8-13-19-13-31l0-167-166 0c-13 0-24-5-32-13-8-8-13-19-13-32 0-25 20-45 45-45l166 0 0-166c0-25 20-45 45-45 25 0 45 20 45 45l0 166 167 0c24 0 44 20 44 45z"/>
    </symbol>
  
    <symbol id="icon-profile-1" viewBox="0 0 512 512">
      <path d="m255 286c76 0 137-62 137-137 0-76-61-137-137-137-76 0-137 62-137 137 0 75 61 137 137 137z m0-238c56 0 101 45 101 101 0 55-45 101-101 101-55 0-101-46-101-101 0-56 46-101 101-101z m-237 452l476 0c10 0 18-8 18-18 0-95-77-172-172-172l-168 0c-95 0-172 77-172 172 0 10 8 18 18 18z m154-154l168 0c69 0 126 51 135 118l-438 0c9-66 66-118 135-118z"/>
    </symbol>
  
    <symbol id="icon-quote-icon" viewBox="0 0 512 512">
      <path d="m244 419c0 13-2 25-7 36-5 12-12 22-20 30-8 9-18 15-30 20-11 5-23 7-36 7-23 0-42-8-59-24-16-16-30-35-40-59-11-23-18-47-23-71-5-25-7-48-7-70 0-88 37-177 113-268 13-13 28-20 45-20 18 0 33 6 45 19 13 12 19 27 19 45 0 8-2 17-5 26-23 55-34 107-34 156 0 47 10 93 31 137 5 12 8 24 8 36z m246 0c0 13-2 25-7 36-5 12-12 22-20 30-8 9-18 15-30 20-11 5-23 7-36 7-22 0-42-8-59-24-16-16-30-35-40-59-11-23-18-47-23-71-5-25-7-48-7-70 0-88 37-177 113-268 13-13 28-20 45-20 18 0 33 6 45 19 13 12 19 27 19 45 0 8-2 17-5 26-23 55-34 107-34 156 0 47 10 93 31 137 5 12 8 24 8 36z"/>
    </symbol>
  
    <symbol id="icon-quote-icon2" viewBox="0 0 512 512">
      <path d="m22 93c0-13 2-25 7-36 5-12 12-22 20-30 8-9 18-15 30-20 11-4 23-7 36-7 22 0 42 8 59 24 16 16 30 36 40 59 11 23 18 47 23 72 5 24 7 47 7 69 0 88-37 178-113 268-13 13-28 20-45 20-18 0-33-6-45-19-13-12-19-27-19-45 0-8 2-17 5-26 22-55 34-107 34-156 0-47-10-93-31-137-5-12-8-24-8-36z m246 0c0-13 2-25 7-36 5-12 12-22 20-30 8-9 18-15 30-20 11-4 23-7 36-7 23 0 42 8 59 24 16 16 30 36 40 59 11 23 18 47 23 72 5 24 7 47 7 69 0 88-37 178-113 268-13 13-28 20-45 20-18 0-33-6-45-19-12-12-19-27-19-44 0-9 2-18 5-27 23-54 34-107 34-156 0-47-10-92-31-136-5-13-8-25-8-37z"/>
    </symbol>
  
    <symbol id="icon-star-1" viewBox="0 0 512 512">
      <path d="m501 233c10-10 14-24 9-38-4-13-16-23-29-25l-124-18c-6 0-10-4-13-8l-55-113c-6-12-19-20-33-20-14 0-27 8-33 20l-55 113c-3 4-7 8-13 8l-124 18c-13 2-25 12-29 25-5 14-1 28 9 38l90 87c4 4 5 10 4 15l-21 123c-2 11 1 22 8 30 11 13 30 17 46 9l110-58c5-3 11-3 16 0l110 58c6 3 12 4 18 4 10 0 21-5 28-13 7-8 10-19 8-30l-21-123c-1-5 0-11 4-15z"/>
    </symbol>
  
    <symbol id="icon-tag" viewBox="0 0 512 512">
      <path d="m399 27l-157 0c-10 0-19 4-26 11l-205 205c-15 14-15 38 0 53l157 157c15 15 39 15 53 0l205-204c7-7 11-17 11-27l0-157c0-21-17-38-38-38z m-65 132c-16 0-28-13-28-29 0-15 12-28 28-28 15 0 28 13 28 28 0 16-13 29-28 29z m140-94l0 175c0 8-3 17-9 23l-208 208 3 3c15 14 39 14 53 0l188-188c7-7 11-17 11-27l0-157c0-20-17-37-38-37z"/>
    </symbol>
  
    <symbol id="icon-top-arrow" viewBox="0 0 512 512">
      <path d="m454 383l-171-174c-3-2-5-4-7-6-9-9-20-14-31-14-11 0-22 5-31 14-3 2-5 4-5 6l-173 174c-9 9-14 20-14 31 0 11 5 22 14 31 17 18 44 18 60 0l149-149 149 149c18 18 45 18 60 0 18-20 18-47 0-62z m-354-261l290 0c17 0 33-15 33-33 0-18-16-33-33-33l-290 0c-18 0-33 15-33 33 0 18 15 33 33 33z"/>
    </symbol>
  
    <symbol id="icon-twitter-black-shape" viewBox="0 0 512 512">
      <path d="m512 97c-20 9-40 15-60 17 22-14 38-33 46-58-21 12-43 21-67 25-21-22-46-33-77-33-29 0-53 10-74 31-20 20-31 45-31 74 0 8 1 16 3 24-43-2-83-13-121-32-37-20-69-45-95-78-10 16-15 34-15 53 0 18 5 35 13 50 9 16 20 28 34 38-17-1-32-6-47-14l0 2c0 25 8 47 24 66 16 19 36 32 60 37-9 2-18 3-28 3-6 0-12 0-20-2 7 21 20 39 38 52 18 14 38 21 61 21-39 30-82 45-131 45-9 0-17 0-25-1 49 31 102 47 161 47 37 0 72-6 105-18 33-12 61-27 84-47 23-20 43-43 60-69 17-25 29-52 37-80 9-28 13-56 13-85 0-6 0-10-1-13 21-15 38-33 53-55z"/>
    </symbol>
  
    <symbol id="icon-twitter-circular-logo" viewBox="0 0 512 512">
      <path d="m256 0c-141 0-256 115-256 256 0 141 115 256 256 256 141 0 256-115 256-256 0-141-115-256-256-256z m134 210c0 3 0 5 0 8 0 80-60 171-171 171-34 0-66-10-93-27 5 1 10 1 15 1 28 0 54-9 75-26-27 0-49-18-57-41 4 0 8 1 12 1 5 0 11-1 16-3-28-5-49-29-49-59 0 0 0 0 0 0 8 4 18 7 28 7-17-11-27-29-27-50 0-11 3-21 8-30 30 36 74 60 124 63-1-5-1-9-1-14 0-33 27-60 60-60 17 0 33 7 44 19 13-3 26-8 38-15-4 14-14 26-26 33 12-1 23-4 34-9-8 12-18 23-30 31z"/>
    </symbol>
  
    <symbol id="icon-twitter-circular-logo-1" viewBox="0 0 512 512">
      <path d="m256 0c-142 0-256 114-256 256 0 142 114 256 256 256 142 0 256-114 256-256 0-142-114-256-256-256z m134 211c0 3 0 4 0 7 0 80-60 172-172 172-34 0-66-11-92-27 5 0 10 1 16 1 28 0 54-9 75-25-27 0-48-18-56-42 3 0 8 1 12 1 6 0 11 0 17-1-27-6-48-30-48-59 7 4 18 7 27 7-17-10-27-28-27-49 0-11 3-21 7-30 30 36 74 60 124 63-2-5-2-9-2-14 0-33 27-60 60-60 17 0 33 8 44 20 14-3 27-8 38-15-5 13-14 25-27 33 12-2 24-5 34-9-7 7-18 18-30 27z"/>
    </symbol>
  
    <symbol id="icon-war" viewBox="0 0 512 512">
      <path d="m335 429c0 38-30 68-67 68-37 0-68-30-68-68 0-37 31-67 68-67 37 0 67 30 67 67z m-67-405c37 0 67 31 67 68l0 170c0 37-30 67-67 67-38 0-68-30-68-67l0-170c0-37 30-68 68-68z"/>
    </symbol>
  
    <symbol id="icon-warning-circle" viewBox="0 0 512 512">
      <path d="m256 512c141 0 256-115 256-256 0-141-115-256-256-256-141 0-256 115-256 256 0 141 115 256 256 256z m0-465c115 0 209 94 209 209 0 115-94 209-209 209-115 0-209-94-209-209 0-115 94-209 209-209z m39 303c0 20-17 36-37 36-20 0-36-16-36-36 0-20 16-37 36-37 20 0 37 17 37 37z m-37-219c20 0 37 16 37 36l0 92c0 20-17 37-37 37-20 0-36-17-36-37l0-92c0-20 16-36 36-36z"/>
    </symbol>
  
    <symbol id="icon-del" viewBox="0 0 512 512">
      <path d="m487 413l-156-157 156-156c21-21 21-54 0-75-21-20-54-20-74 0l-157 157-156-157c-21-20-54-20-75 0-20 21-20 54 0 75l157 156-157 157c-20 20-20 54 0 74 21 21 54 21 75 0l156-156 157 156c20 21 54 21 74 0 21-21 21-54 0-74z"/>
    </symbol>
  
    <symbol id="icon-close" viewBox="0 0 512 512">
      <path d="m472 45c-6-5-16-5-22 0l-60 60c-5 6-5 15 0 22 6 5 16 5 22 0l60-60c6-6 6-15 0-22z m0 411l-411-411c-5-5-15-5-21 0-6 6-6 16 0 22l410 410c6 6 15 6 22 0 6-5 6-16 0-21z m-108-302c-6-6-15-6-22 0l-302 302c-5 5-5 15 0 21 6 6 16 6 22 0l302-302c6-6 6-16 0-21z"/>
    </symbol>

    <symbol id="icon-wave" viewBox="0 0 410.986 34.825">
        <g data-name="Слой 2">
            <path d="M355.105 34.825c-14.8 0-22.337-6.9-28.988-12.986C320.112 16.342 315.368 12 305.231 12s-14.881 4.342-20.887 9.839c-6.65 6.087-14.188 12.986-28.988 12.986s-22.337-6.9-28.988-12.986C220.363 16.342 215.62 12 205.483 12S190.6 16.342 184.6 21.839c-6.65 6.087-14.188 12.986-28.988 12.986s-22.334-6.9-28.984-12.986c-6-5.5-10.747-9.839-20.882-9.839s-14.879 4.342-20.884 9.839c-6.65 6.087-14.188 12.986-28.987 12.986s-22.338-6.9-28.989-12.986C20.88 16.342 16.137 12 6 12A6 6 0 0 1 6 0c14.8 0 22.337 6.9 28.988 12.986 6.005 5.5 10.749 9.839 20.886 9.839s14.879-4.342 20.884-9.838C83.408 6.9 90.946 0 105.745 0s22.335 6.9 28.985 12.987c6 5.5 10.746 9.838 20.881 9.838s14.88-4.342 20.885-9.838C183.146 6.9 190.684 0 205.483 0s22.337 6.9 28.988 12.987c6.005 5.5 10.749 9.838 20.885 9.838s14.881-4.342 20.886-9.838C282.893 6.9 290.431 0 305.231 0s22.338 6.9 28.989 12.987c6.005 5.5 10.748 9.838 20.885 9.838s14.883-4.342 20.89-9.839C382.646 6.9 390.185 0 404.986 0a6 6 0 0 1 0 12c-10.139 0-14.883 4.342-20.89 9.839-6.651 6.087-14.189 12.986-28.991 12.986z" data-name="Capa 1"/>
        </g>
    </symbol>

    <symbol id="angular">
      <path fill="#B3B3B3" d="M63.81 1.026l-59.257 20.854 9.363 77.637 49.957 27.457 50.214-27.828 9.36-77.635z"></path><path fill="#A6120D" d="M117.536 25.998l-53.864-18.369v112.785l45.141-24.983z"></path><path fill="#DD1B16" d="M11.201 26.329l8.026 69.434 44.444 24.651v-112.787z"></path><path fill="#F2F2F2" d="M78.499 67.67l-14.827 6.934h-15.628l-7.347 18.374-13.663.254 36.638-81.508 14.827 55.946zm-1.434-3.491l-13.295-26.321-10.906 25.868h10.807l13.394.453z"></path><path fill="#B3B3B3" d="M63.671 11.724l.098 26.134 12.375 25.888h-12.446l-.027 10.841 17.209.017 8.042 18.63 13.074.242z"></path>
    </symbol>
    <symbol id="babel">
      <path class="cls-1" d="M90.18,50.5v.15l.31,0a1.18,1.18,0,0,1,.09-.43l0-.27c-.13,0-.26.21-.38.58Zm-2.94-7.08,0-.27-.44,0,0,.27.44,0Zm-8.54,16a14.07,14.07,0,0,0-2.35-3c0-.32.5-.79,1.59-1.42L81,52.34A7.79,7.79,0,0,0,82.28,48l0-.46c-.12-1.38-1.12-2.49-3-3.34q-1.68-1.13-6-1.25a35.58,35.58,0,0,0-9.41,2.58,38.64,38.64,0,0,1-3.63,2.29l0,.23a.87.87,0,0,0,.36-.16.21.21,0,0,1,.26.21L61,48h.11v.1a12.79,12.79,0,0,1-2.52,2l.13.24h-.11l-.28-.1c0,.08-.11.14-.34.16v.1l.27.34a1,1,0,0,1-.39-.09,1.88,1.88,0,0,0-1.16.63l.16-.69a56.27,56.27,0,0,0,1.16-6.5L58,44A4.73,4.73,0,0,1,56.91,43a3.71,3.71,0,0,0,0-.49l0-.1-.11,0q-1.85,2.77-7.11,9.45-4,4.75-4.14,5.28c-1.09,1.13-1.61,1.81-1.56,2-.29.19-.41.37-.36.58a.12.12,0,0,1-.16-.09,3.17,3.17,0,0,1-2.08,1.45l-1,.22a.23.23,0,0,0-.19.28l0,.12.36-.08,0,.1-.82.32-1.45.34-.76,0c-.11.11.61,0,.33.06l-1,.22c-.58.13-.89.08-1-.15l-.11,0a.54.54,0,0,1,0,.24l-.06-.23-.76.18Q35,62.29,32,59c0-.43.67-1.05,2.12-1.86l4.08-3.59q1.37-1.76,1.63-5.65l-.06-.61c-.16-1.83-1.48-3.3-4-4.44-1.47-1-4.12-1.53-7.94-1.61a47.82,47.82,0,0,0-12.39,3.36,47.39,47.39,0,0,1-4.78,3l0,.32a1.25,1.25,0,0,0,.48-.19.27.27,0,0,1,.34.26l.32-.18H12V48a18.64,18.64,0,0,1-3.34,2.6l.18.28H8.7l-.34-.12c0,.09-.15.16-.48.19l0,.17.37.41a1.36,1.36,0,0,1-.5-.1A3.17,3.17,0,0,0,5.63,53l.18.28a4.47,4.47,0,0,1,1.06-.85l0,.46a1.53,1.53,0,0,0-.48.19l.38.58a12.63,12.63,0,0,1,2.43-2c.44.11.67.25.68.4l.34,0a26,26,0,0,1,7.14-3.86l0,.32q-.66,1-.89,1a1,1,0,0,0,.23.59q.06.6-3.21,8.1Q6.17,75.5,1.13,83.84a1.08,1.08,0,0,0,.2.45,4.17,4.17,0,0,0,1.57-.6l.18,0,0,.32.31,0,.32-.18c0,.09.11.14.33.12l0,.32a2.83,2.83,0,0,1-.52,1.42A7.37,7.37,0,0,0,2.48,88v.15l.31,0a19.55,19.55,0,0,0,3.06-4.41,48.85,48.85,0,0,0,9-3.38,8.39,8.39,0,0,0,4.74-1.63l0-.17-.78.23-.18,0,0-.17a7.07,7.07,0,0,0,3.17-1q4.46-3.44,6.74-4.87,4.68-3.44,6.08-6.7l.52-.12a6.81,6.81,0,0,0,.75,0c0-.08,0-.13.1-.15.7-.07.36,0,.81-.06l1.17-.27.2,0-.09.06a1.14,1.14,0,0,0,.43,0l.08.34-5.34,8.49L32,75.71l-.58,1.94.11,0,.58-.24-.19.75.06.22.16.2c-.07,0-.1.07-.08.15l0,.12.24-.06q.53-.46.45-.84a2.21,2.21,0,0,0,.76.06l0,.12c-.23.06-.35.24-.37.56l0,.12.13,0c1.94-2.12,6.69-9.35,10.5-14.27q-.18-.8,6-2.22l.13,0q.22,1-1,4.67a12.58,12.58,0,0,0-.71,2.44,18.69,18.69,0,0,0-.92,3.22L45.9,77.34A43.46,43.46,0,0,0,43.74,85a1,1,0,0,1,.4,0l.21-.18a.12.12,0,0,0,.16.09l-.08-.34.63,0c.19,0,.34-.28.48-.71,0-.64.1-1,.39-1.06a10.29,10.29,0,0,1,.72-2.32,10.29,10.29,0,0,1,.81-2.6c.55-2,1-3,1.21-3.06l.06.24-.4,1a50.68,50.68,0,0,1-2.12,7.35l.21.89.13,0q2.6-5.59,7.48-22.14A2.89,2.89,0,0,1,55.4,60l-.19-.2,0-.1a1.27,1.27,0,0,0,.78-.44c0-.08-.34-.21-1-.37l1.62-7a2.41,2.41,0,0,1,.62-.48l0,.35a.87.87,0,0,0-.36.16l.31.44A10,10,0,0,1,59,50.83c.34.09.5.21.52.32l.24,0a19.75,19.75,0,0,1,5.43-2.91l0,.23q-.49.74-.67.75a1,1,0,0,0,.15.45,42.49,42.49,0,0,1-2.41,6.16,167.41,167.41,0,0,1-9.44,19.55.87.87,0,0,0,.17.34,3,3,0,0,0,1.18-.46h.11l0,.23.26,0,.23-.12q0,.1.25.08l0,.25a2.12,2.12,0,0,1-.4,1.06,5.31,5.31,0,0,0-.85,1.82v.12l.24,0a14.72,14.72,0,0,0,2.32-3.35,37.55,37.55,0,0,0,6.8-2.56,6.39,6.39,0,0,0,3.62-1.24v-.12l-.61.18h-.13v-.12a5.36,5.36,0,0,0,2.4-.77c2.25-1.73,4-3,5.12-3.7,3.6-2.62,5.27-5.13,5.07-7.55Zm-.62.16.08.94c-.11.23-.23.35-.34.36l-.14-1.6c.26.09.39.19.4.3ZM7.52,52H7.36l0-.29L8,51.66v.15a1.24,1.24,0,0,0-.47.19ZM4.38,83.4a2,2,0,0,0-1-.21l0-.46c0-.18.08-.3.31-.34s.33.13.34.43a6.78,6.78,0,0,1,.89-1l.34.14c-.11.93-.4,1.41-.86,1.44ZM37.93,48.3c-.16,0-.48-.48-.93-1.45l0-.29c.3,0,.61.46.93,1.45l0,.29Zm-.45-3.48-.13.31-4.56-1.9q4.56.15,4.69,1.59ZM18.25,61.35l-.64.06,0-.29.64-.06,0,.29Zm-.52-9.92h.16l0,.46c-.15,0-.34.23-.59.66l0-.32c.29-.34.44-.61.42-.79Zm-1.35,3.19.06.61h-.16l-.06-.61Zm-.71,1.14.31,0c0,.5-.17.77-.42.79h-.16a1.46,1.46,0,0,0,.27-.77Zm-.53,1.58.18,0v.15l-.29.48-.31,0v-.15a.4.4,0,0,0,.42-.49Zm-.52,1.43-.09.76h-.16l-.07-.75.32,0ZM9.38,73.62c-.21,1-.43,1.57-.66,1.59v-.15a1.67,1.67,0,0,1,.67-1.44Zm-1,2.08v.15a.27.27,0,0,1-.28.34V76q0-.27.28-.34ZM8.15,80l.48,0,0,.17a1.25,1.25,0,0,0-.48.19l-.31,0c0-.16.08-.28.28-.34Zm13.79-4.26a25.56,25.56,0,0,0-4.8,2.73Q12.72,80,12.76,80.39a48,48,0,0,0-5.17,2.27,1.86,1.86,0,0,1-.85-.22,1.37,1.37,0,0,1,.71-1.3,2.75,2.75,0,0,1,1.31.21,12.78,12.78,0,0,1,2.53-.83l0-.32-1,.08A13.17,13.17,0,0,1,13.1,79l.48,0v.15c-.83.07-1.29.32-1.39.75,0,.2.13.28.34.26.62-.39.93-.62.92-.69q1.77-.34,9.81-5.13l0,.29c0,.14-.45.53-1.37,1.2Zm-8.22,2.7a3.17,3.17,0,0,0,2-.93c.22,0,.34.07.35.26a7.17,7.17,0,0,0-2.19,1h-.16l0-.31ZM27,68.27l-4.11,3.26a40.68,40.68,0,0,1-4.94,3q-7.3,4-9.07,4.17l-.18,0q.22-.82,6.5-13.31a35.47,35.47,0,0,0,8.71-2.58l1-.08a5.59,5.59,0,0,1,4.49,1.15l.06.61c-.74,2.13-1.56,3.38-2.44,3.75Zm-8-4.52.66-.06v.15L19,63.9v-.15Zm9.29-1.57.48,0c.45.21.68.4.7.57v.15a1.36,1.36,0,0,1-1.19-.67Zm1.31-7.48A19,19,0,0,1,26,57.31c-.63.06-3,1-7.07,2.76A1.29,1.29,0,0,0,18.3,60l0-.29a3.81,3.81,0,0,1,.79-2.22c.32-1.68.66-2.64,1-2.87l3.4-7.65q-.06-.71,2.18-1.09l.48,0,0,.44c1.46-.22,2.38-.35,2.73-.38,2.7-.23,4.11.32,4.22,1.63l.31,0-.07-.77.34,0A2.12,2.12,0,0,1,35,48.25a2.48,2.48,0,0,1-.69,1.59c-.21,0-.33-.13-.34-.43l-.34,0-.07.93q-2.05,3.07-3,3.16c-.56.77-.9,1.16-1,1.16Zm2.09,5.36a1.2,1.2,0,0,0-.67-.26l0-.46.31,0,.68.4a.27.27,0,0,1-.28.34Zm2.16,2.56c.3.12.48.25.51.37l-.15,0h0l-.09,0-.22.18-.06-.62ZM34,63.9l0-.12.39-.09,0,.12L34,63.9ZM34.94,65c.4-.07.6-.09,1.34-.26l0,.12-1.42.33a1.87,1.87,0,0,0,0-.19Zm1.38.59a6.06,6.06,0,0,0-1.42.2l0-.12,1.19-.38.57-.13.06.22c-.26.06-.07.06-.37.21Zm1.26-.3a.26.26,0,0,1-.32-.19l.36-.08a.22.22,0,0,1,.3.19l-.34.08ZM41,61.57l0-.12.59-.14.06.22-.62,0Zm3.64,22.34a.92.92,0,0,0,0-.37l.13,0a.21.21,0,0,1,.29.17l0,.12-.48.11Zm2.55-21.38-.26,0a7.38,7.38,0,0,1-1.06.35l-.24.06a.24.24,0,0,1-.31-.17L47,62.34l.56-.26.19.21a1.25,1.25,0,0,0-.58.24Zm1.31-.42,0-.12a.71.71,0,0,0,.32-.21L50,61.51l0,.12a9.36,9.36,0,0,0-1.53.48Zm.19-2.45a1,1,0,0,0-.34.21c0-.08-.19-.08-.5,0-.06-.23.84-.56,2.69-1l.26-.06.06.22c-1.3.38-2,.6-2.17.62Zm3.26-3.52c-.13,1.48-.65,2.32-1.57,2.53l0-.12-.82.32-.36.08a.91.91,0,0,1-.5,0l-.07-.33a49.32,49.32,0,0,1,3.56-4.91l.28,0a5.09,5.09,0,0,1-.48,2.39Zm5.77-4.94H57.6l0-.23.48,0v.12a1.57,1.57,0,0,0-.36.15ZM55.34,75.06a1.49,1.49,0,0,0-.75-.17l0-.35q0-.18.22-.25c.16,0,.25.09.27.34a4.09,4.09,0,0,1,.67-.77L56,74c-.09.71-.31,1.08-.64,1.11ZM80.81,48.42c-.12,0-.35-.36-.72-1.12l0-.23c.23,0,.48.34.72,1.09l0,.26Zm-.34-2.66-.11.24-3.45-1.44c2.3.07,3.49.48,3.56,1.2ZM65.86,58.3l-.48,0,0-.23.48,0,0,.23Zm-.4-7.54h.13l0,.35q-.18,0-.45.5l0-.23a1.08,1.08,0,0,0,.31-.62Zm-1,2.42,0,.46h-.13l0-.46Zm-.55.87.24,0q0,.59-.31.61H63.7a1.26,1.26,0,0,0,.2-.61Zm-.39,1.19h.11v.12l-.21.37-.24,0v-.12c.25,0,.36-.15.34-.38Zm-.39,1.08-.08.6h-.11l0-.59.24,0Zm-4,11.3q-.24,1.17-.5,1.2v-.1a1.33,1.33,0,0,1,.51-1.1ZM58.4,69.2v.1a.21.21,0,0,1-.22.27v-.12q0-.18.22-.25Zm-.21,3.28.37,0v.12a1.07,1.07,0,0,0-.36.14l-.24,0q0-.2.22-.25Zm10.46-3.23A21.75,21.75,0,0,0,65,71.31c-2.24.78-3.34,1.27-3.33,1.46a35.33,35.33,0,0,0-3.9,1.72,1.45,1.45,0,0,1-.64-.18,1,1,0,0,1,.54-1,2.1,2.1,0,0,1,1,.15,10.83,10.83,0,0,1,1.93-.62l0-.23-.75.07a10,10,0,0,1,2.14-1l.37,0v.1c-.63.06-1,.24-1.06.58a.21.21,0,0,0,.26.21c.47-.31.69-.48.69-.54q1.34-.24,7.44-3.9l0,.23c0,.09-.34.39-1,.9Zm-6.24,2A2.5,2.5,0,0,0,64,70.6c.16,0,.25.06.26.21a5.92,5.92,0,0,0-1.66.71h-.13l0-.22Zm10.08-7.74-3.1,2.5a30.16,30.16,0,0,1-3.77,2.3q-5.53,3-6.89,3.16H58.6q.17-.63,4.95-10.1a27.26,27.26,0,0,0,6.61-2l.75-.07a4.2,4.2,0,0,1,3.4.89l0,.46c-.57,1.6-1.18,2.54-1.85,2.83ZM66.4,60.13l.48,0v.12l-.48,0v-.12Zm7.05-1.2.37,0c.34.17.52.32.53.44v.1a1,1,0,0,1-.91-.51Zm1-5.67a14.26,14.26,0,0,1-2.66,2,35.66,35.66,0,0,0-5.37,2.08,1.23,1.23,0,0,0-.49-.07l0-.23a2.92,2.92,0,0,1,.59-1.69c.24-1.29.51-2,.79-2.17l2.6-5.81c0-.34.52-.62,1.64-.84l.37,0,0,.35q1.65-.27,2.07-.31c2-.18,3.12.23,3.21,1.24l.24,0,0-.56.24,0a1.55,1.55,0,0,1,1,1.18,1.93,1.93,0,0,1-.49,1.22c-.16,0-.25-.09-.27-.34l-.24,0-.07.7c-1,1.57-1.79,2.39-2.26,2.42-.42.57-.68.86-.8.87Zm1.09,3.88,0-.35.24,0,.52.32a.22.22,0,0,1-.22.25,1,1,0,0,0-.51-.2ZM32.15,79.76l-.24.06L31.7,80a.21.21,0,0,0,.29.17c.16,0,.22-.13.19-.28l0-.12Zm-.92-1.84,0,.12c.16,0,.22-.13.19-.28l0-.12a.22.22,0,0,0-.19.28Zm6.6-12.39.18-.11-.09,0a.11.11,0,0,0-.08.13Zm0-3.21.28-.07L38,62l-.28.07.06.24Zm65.85,9.41-.63-.07-.11.24V72l3.77-.32,0-.23-3,.26Zm3.45-.29,0,.23h0l0-.23Zm15.83-2.07,0,.23.41.07,0-.23-.41-.07Zm-.58,0a15.72,15.72,0,0,1-3.78.57l0,.23.26,0H119l0,0,.31-.12c2.8-.31,3.13-.2,3.1-.51v-.11Zm-17-4.12-.25-.08a4.2,4.2,0,0,0-.3,1v.1c.2,0,.37-.34.54-1Zm-3.41-1.84v-.12h-.13l-.23.15.13.22c.18,0,.26-.1.24-.26Zm7.41,7.66,0-.23h-.07l0,.23Zm15.37-3.47.18,0c.1,0,.15-.09.14-.24l-.1-.22a3,3,0,0,0-1.46.37v-.12l-.77.07c0-.23-.08-.35-.19-.34l-.4,0c-.47,0-.69,0-.92.2,0-.08,0-.12-.08-.12l-.45,0-.26.15c0-.08,0-.12-.08-.12l-.16.14v-.12l-.62,0h-.15l0,.23.32.08.3,0a.54.54,0,0,0,.34.07l.26-.13v.1a19.08,19.08,0,0,1-2.46.47.43.43,0,0,0-.25-.1l0,0a.2.2,0,0,1-.19-.21l.52-.07a3.19,3.19,0,0,0,.35.09c.42-.21.44-.29.66-.31l0-.23a15.19,15.19,0,0,1-2.66.25h-.08l0-.23c2.31-.28,1.54-.12,2.33-.34,0,.08,0,.12.08.12a.54.54,0,0,1,.32-.16h.16A8.46,8.46,0,0,0,122,66.6v.1l.26-.13.24,0c0-.23.34-.27.46-.28l0-.25c-2.81.57-3.55.41-4.33.63v-.1a3.41,3.41,0,0,1-1,.08.49.49,0,0,0-.23.15c0-.08,0-.12-.09-.12h0l-2.39.39c0-.07,0-.1-.09-.09a12.17,12.17,0,0,1-2.56.46.78.78,0,0,0-.31.13c0-.07,0-.1-.13-.09l-1,.08-.68.17c0-.07,0-.1-.13-.09a5.41,5.41,0,0,1-1,.19h0c-.17,0,.08,0,0-.1l-.21.12c-.3,0-.14,0-1.16,0-1.8.22-1.6.25-1.8.26l-.67,0a.09.09,0,0,1-.1.11c-.76-.1-1.16-.22-1.16-.36q.15-1.09.53-1.12h.13l-.11.24h.13c.24-.13.35-.25.34-.36l0-.25-.24,0,0-.23a.84.84,0,0,1,.07-.47l.55-.89,0,.23.26,0,0-.23-.15-.21a1,1,0,0,1,.47-.27v-.12l-.35,0,0-.35a10,10,0,0,0,1-2.57l.25.1c.16,0,.23-.1.22-.27l-.24,0v-.1a.89.89,0,0,1,.09-.49,1.56,1.56,0,0,0,.52-1.22c.07,0,.11,0,.12.11.33-.19.58-.68.76-1.5a46.87,46.87,0,0,0,2.47-6.25c2.05-5.52,2-6.1,2.25-7.41l-.24,0a.84.84,0,0,1-.09.48,1,1,0,0,0-.39-.09v-.1a2.83,2.83,0,0,1,.61-1.71h.11l.21.8.24,0a7.3,7.3,0,0,1,.19-1c0-.12-.1-.2-.29-.21l-.23.15c0-.17,0-.61,0-1.3h-.12a.91.91,0,0,1-.32-.51l-1.33.13a1.22,1.22,0,0,0-.15-.41c0-.12.29-.24.9-.36l.27.1.25-.15c0,.08.06.12.15.11l.25-.15c0,.08.06.12.15.11h.12l0-.27c-.19,0-.68,0-1.46,0l-.25.17v-.15q-9.38.77-10.65.89c-.11,0-.55,0-1.32,0,0,.1-.08.16-.27.18l-.27-.12L98,41a6.06,6.06,0,0,1-1.08,0,.93.93,0,0,1-.51.2L99.06,41a1.22,1.22,0,0,1-.65.21.9.9,0,0,1-.53-.09,15.15,15.15,0,0,1-2,.47l-.27-.1-4.36.67a1.09,1.09,0,0,0-.59-.09,7.24,7.24,0,0,0-1.16.25l-2.11.88.16.26a1.17,1.17,0,0,0,.43-.17l.75.07-.09.7a1.88,1.88,0,0,0-1.2,1.34c-1,.46-1.55.78-1.55,1v.12h.16l.28-.15.33.39,0,.54q0,.25-5.21,11c-3,6.9-4.6,10.67-4.75,11.35-1,.29-1.63.71-1.81,1.27,0,.18.33.3.92.34l0,.27-.27.45,0,.54q0,.42,2.26.64c0-.09,0-.15.14-.16a8.16,8.16,0,0,1-.28,2H78a3.47,3.47,0,0,0,.88-1.73H79c.15,0,.31.16.49.52q-.28.11-2,4.45l.16.26h.16q2.05-5.2,2.58-5.75,2.7-.24,9.33-1l.28-.17a.13.13,0,0,0,.17.13l.29,0,.28-.17a.13.13,0,0,0,.17.13l3.35-.29c.89-.07,1.3-.34,1.27-.8,0-.12.51-.26,1.57-.41a1.28,1.28,0,0,1,.46.08c0-.08.52-.17,1.58-.26,0-.56.2-.86.52-.89l0-.27a4.63,4.63,0,0,0-1,.23,6.26,6.26,0,0,1-1.33-.16,1.23,1.23,0,0,1-.43.17L94.51,69l-.28.15q0-.13-.17-.11h-.13l-.3.15c0-.08-.25-.15-.74-.21l-.3.18-.58,0v-.15q4.5-.49,4.44-1.22a.26.26,0,0,1,.32.27l.88-.22,0-.27-7.18.2c0,.09,0,.15-.14.16l-.88-.07a1.06,1.06,0,0,0-.56.2L88.54,68a10,10,0,0,0-2,.33,12.73,12.73,0,0,0-2,0l-1.61.14-.75-.08c0-.48.89-2.81,2.79-7a6.11,6.11,0,0,1,1.54-2.64,1.08,1.08,0,0,1,.46.11L88,58.47l.59.09a13.45,13.45,0,0,0,3.45-.85,1.62,1.62,0,0,1,.75.07l.88-.21,2.61-.22a17.3,17.3,0,0,0,3.62-.74l0-.27c-.48,0-.74,0-.75-.23,0-.36-.38-.51-1.06-.46l0-.27.72-.21,1.88-.16,0-.27c-.07,0-.46,0-1.16,0l0-.29.73-.07c.2,0,.28-.11.26-.3-1,0-1.47,0-1.48-.15q-10.23.5-10.26.19a1.17,1.17,0,0,0-.43.19L88.06,54q2.71-5.76,3.18-5.8a1.69,1.69,0,0,1-.22.72V49l.29,0c.72-1.71,1.32-2.6,1.83-2.64,2.14-.19-.3-.33,4.29-1a.89.89,0,0,0,.41.11q2.7-.55,7.52-1.14l0-.27-1.71.16,0-.27a.93.93,0,0,0,.51-.2v.15a1,1,0,0,0,.39-.19,1.23,1.23,0,0,1,.68.08,9.92,9.92,0,0,1,1.44-.29l1.07-.1c.26-.17.38-.32.37-.46v-.12a3.38,3.38,0,0,1-.94-.06.27.27,0,0,1,.24-.3l2-.19.91-.23c0,.1.06.14.13.14a1,1,0,0,0,.39-.19l.15,0a7.45,7.45,0,0,0-.4,1.09l-.26,0a1.14,1.14,0,0,0-.15-.48H110c-2.42,6.75-3.5,9.89-5.74,15.07-.41,1.32-.75,2.06-1.05,2.22a.21.21,0,0,0,.26.21,3.25,3.25,0,0,1-.46,1.93c-1,3-1.72,4.61-2.08,4.91l.23,1.41a.22.22,0,0,1-.22.25l-.24,0c0-.39-.18-.58-.43-.55h-.13a5.54,5.54,0,0,0-.72,1.72l.24,0a.81.81,0,0,0,.45-.75l.48,0,.28.1a1.49,1.49,0,0,0-.31.85l.13.22-.32.75v.12a1.51,1.51,0,0,1,.91.26A1.63,1.63,0,0,0,102,71c.28,0,1.32,0,3.12,0l.9-.31a20.9,20.9,0,0,0,2.23-.07l.39,0,.21-.14v.12a6.11,6.11,0,0,1,1.84.07v.12l-.55,0,0,.23a.79.79,0,0,0,.44-.17c.14,0,.22.07.23.23a3.28,3.28,0,0,0-.75.17l-.24-.08c-.38.1-.3.13-.56.15l-.38-.07a.09.09,0,0,1-.09.11.2.2,0,0,0,.23.21l.39,0,2-.18.77-.17c0,.07,0,.1.1.09l.37-.14.7-.06c.54,0,.53-.08,1.71-.27,0-.07,0-.1.07-.11v.1a17.2,17.2,0,0,0,2.34-.45l0,.06c.48-.11.21-.08.34-.18,0,.08,0,.12.08.12l.34,0,0-.25h-.68v0l-.07,0h-.09v0a3.59,3.59,0,0,1-.76.06l-1.71.09v-.12l1-.13.34,0,.2-.14V70c1.34-.11,1.82.22,8-1.1.34,0,.31-.31.52-.89a.58.58,0,0,1-.33-.07,9.7,9.7,0,0,1-1.77.26c-.08,0-.15-.07-.18-.21v-.1l1,0a2.4,2.4,0,0,0,1-.34c0,.08-.2.13-.08.12Zm-45.88.74-.44,0a8.26,8.26,0,0,1,.7-2l.29,0a7.62,7.62,0,0,1-.55,2Zm.53-2.12v-.12c0-.15.08-.25.29-.3V66c0,.18-.08.28-.29.3Zm5.82,4.5v.12l-.73.07v-.12l.73-.07Zm-.88-.07c0,.15-.21.32-.7.48l-.89-.07-.29,0,0-.27,1.91-.18Zm5.89-27.11-.44,0v-.15c0-.15.07-.25.26-.3h.16l.3.12a.26.26,0,0,1-.27.3Zm6.66-1.3H97l0,.27-.4,0a.27.27,0,0,1,.24-.3Zm-1.68.59-.66-.07v-.12a7.15,7.15,0,0,0,1.69-.32c0,.1.1.14.27.12l0,.27-.26,0a.9.9,0,0,1-.53-.09,1.14,1.14,0,0,1-.51.19ZM96,45.29v-.12l1.07-.1v.12l-1.07.1Zm1.15-.93V44.2l.52,0v.15l-.52,0Zm.12-1.83h-.14l.12-.29,1.19-.11v.15a7.2,7.2,0,0,0-1.18.24Zm.61,2.57,0-.27.52,0q.27,0,.28.25l-.78.07Zm3.16-4.3-.67.19h-.12A6.85,6.85,0,0,1,99,41c.87-.06,1.7-.12,2-.17Zm-.72,3v.12L99.4,44v-.12l.92-.08Zm1.51.72c0-.11-.19-.19-.55-.22l-.92.26-.71,0c-.16-.11-.24-.19-.25-.24l.82,0,1.84-.3.94,0v.15a5.28,5.28,0,0,0-1.18.24ZM111.32,42h.21a3.57,3.57,0,0,1,1.11-.75,6.55,6.55,0,0,1-1.57,3.27l-.52-.32a17,17,0,0,0,.77-2.22Zm-1.6,2.75h.13c-.18.34-.34.51-.47.52l0-.35a.79.79,0,0,0,.36-.16Zm-1,2.47a3.5,3.5,0,0,1,.72-1.72v.12c-.13.93-.34,1.43-.61,1.46l0,.59a1.32,1.32,0,0,0-.32.75h-.13l-.07-.81c.15,0,.27-.15.35-.39Zm-.4,1.34a3.41,3.41,0,0,1-.27,1h-.13l0-.35c.18-.41.33-.62.43-.62Zm-7.52,21.82v-.1l.24,0,0,.35c-.13,0-.22-.07-.26-.23Zm10.74.28c0-.08,0-.12-.13-.11l-.61.06v-.12h.06l1.43-.12v.12a1.26,1.26,0,0,0-.75.18Zm-.72-.3c.06,0,0,.06,0,.07s-.07,0,0-.07Zm.07-1.68-.8.07v-.12l.73-.07.63-.16c0,.07,0,.1.13.09.75-.13.68-.17,1-.2.12,0,.2.07.21.21l-1.93.17Zm2.8-.24a3.19,3.19,0,0,0-.79-.06v-.1l.72-.07v.1c-.07,0,.2,0,.07.12Zm.06-.13v-.1l.39,0v.1l-.39,0Zm.87-.07v-.1a.68.68,0,0,0,.28-.15.28.28,0,0,1,.32.26Zm1.11-.14V68l.48,0v.12l-.48,0Zm.66-.06c0-.14,0-.22.17-.24l.16.21a.09.09,0,0,1,.07-.11l.12.22-.52-.07ZM125.53,67h0v0Zm.17-.12c.07,0,.11-.09-.07-.12s.09.12-.09.13V67l.1-.07-.1.08h0l-.2.25.39-.14h0l0-.23Zm.68.53h-.07l0,.23.55,0c0-.15-.37-.2-.49-.2Z"></path>
    </symbol>
    <symbol id="bootstrap">
      <path fill="#5B4282" d="M9.531 112.586h4.161c1.896 0 3.273.27 4.129.81.857.54 1.285 1.398 1.285 2.575 0 .799-.188 1.454-.563 1.966s-.874.82-1.496.924v.091c.848.189 1.459.543 1.834 1.061s.563 1.207.563 2.067c0 1.22-.44 2.171-1.322 2.854-.881.683-2.078 1.024-3.59 1.024h-5.001v-13.372zm2.835 5.296h1.646c.768 0 1.325-.119 1.669-.356.345-.238.517-.631.517-1.18 0-.512-.187-.879-.562-1.102s-.968-.334-1.779-.334h-1.491v2.972zm0 2.25v3.485h1.848c.78 0 1.356-.149 1.729-.448s.558-.756.558-1.372c0-1.109-.793-1.665-2.378-1.665h-1.757zM34.252 119.254c0 2.213-.549 3.915-1.646 5.104s-2.67 1.784-4.719 1.784-3.622-.595-4.719-1.784c-1.098-1.189-1.646-2.896-1.646-5.122s.55-3.925 1.651-5.099 2.678-1.761 4.733-1.761 3.626.592 4.715 1.774c1.087 1.183 1.631 2.885 1.631 5.104zm-9.758 0c0 1.494.283 2.619.851 3.375.567.756 1.414 1.134 2.542 1.134 2.262 0 3.393-1.503 3.393-4.509 0-3.012-1.125-4.518-3.375-4.518-1.128 0-1.979.379-2.552 1.139s-.859 1.885-.859 3.379zM49.161 119.254c0 2.213-.549 3.915-1.646 5.104s-2.67 1.784-4.719 1.784-3.622-.595-4.719-1.784c-1.098-1.189-1.646-2.896-1.646-5.122s.55-3.925 1.651-5.099 2.678-1.761 4.733-1.761 3.626.592 4.715 1.774c1.086 1.183 1.631 2.885 1.631 5.104zm-9.759 0c0 1.494.283 2.619.851 3.375.567.756 1.414 1.134 2.542 1.134 2.262 0 3.393-1.503 3.393-4.509 0-3.012-1.125-4.518-3.375-4.518-1.128 0-1.979.379-2.552 1.139s-.859 1.885-.859 3.379zM57.09 125.958h-2.835v-11.012h-3.631v-2.36h10.097v2.36h-3.631v11.012zM70.671 122.245c0 1.208-.434 2.159-1.303 2.854-.869.695-2.078 1.043-3.626 1.043-1.427 0-2.689-.269-3.786-.805v-2.634c.902.402 1.666.686 2.291.851s1.196.247 1.715.247c.622 0 1.099-.119 1.431-.356.333-.238.499-.591.499-1.061 0-.262-.073-.495-.219-.7-.146-.204-.361-.401-.645-.59s-.861-.491-1.733-.905c-.817-.384-1.43-.753-1.838-1.107-.409-.354-.735-.765-.979-1.234-.244-.47-.366-1.019-.366-1.646 0-1.183.401-2.113 1.203-2.79s1.91-1.015 3.325-1.015c.695 0 1.358.082 1.989.247.631.165 1.291.396 1.98.695l-.915 2.204c-.713-.292-1.303-.497-1.77-.613-.467-.116-.925-.174-1.376-.174-.537 0-.948.125-1.235.375-.287.25-.43.576-.43.979 0 .25.058.468.174.654.116.186.3.366.553.54.253.174.852.486 1.797.938 1.25.598 2.107 1.197 2.57 1.797s.694 1.334.694 2.206zM78.254 125.958h-2.835v-11.012h-3.631v-2.36h10.097v2.36h-3.631v11.012zM86.778 120.827v5.131h-2.835v-13.372h3.896c1.817 0 3.161.331 4.033.992.872.662 1.308 1.667 1.308 3.014 0 .787-.216 1.486-.649 2.099s-1.046 1.093-1.838 1.44c2.012 3.006 3.323 4.948 3.933 5.826h-3.146l-3.192-5.131h-1.51zm0-2.305h.915c.896 0 1.558-.149 1.985-.448s.64-.769.64-1.409c0-.634-.218-1.085-.654-1.354-.436-.268-1.111-.402-2.026-.402h-.86v3.613zM104.494 125.958l-.97-3.183h-4.875l-.97 3.183h-3.055l4.719-13.426h3.466l4.738 13.426h-3.053zm-1.647-5.561c-.896-2.884-1.401-4.515-1.514-4.893-.113-.378-.193-.677-.242-.896-.201.78-.777 2.71-1.729 5.789h3.485zM118.469 116.757c0 1.439-.45 2.54-1.349 3.301-.899.763-2.178 1.144-3.837 1.144h-1.216v4.756h-2.835v-13.372h4.271c1.622 0 2.855.349 3.7 1.047.844.699 1.266 1.74 1.266 3.124zm-6.402 2.122h.933c.872 0 1.524-.172 1.957-.517.433-.345.649-.846.649-1.504 0-.665-.182-1.156-.544-1.473-.363-.317-.932-.476-1.706-.476h-1.29v3.97zM73.951 56.759c-1.983-.653-4.838-.759-8.565-.759h-13.386v20h14.424c2.502 0 4.259-.249 5.271-.437 1.783-.318 3.274-.93 4.472-1.676 1.198-.744 2.183-1.869 2.955-3.293.771-1.424 1.158-3.087 1.158-4.951 0-2.184-.559-3.98-1.677-5.59-1.117-1.611-2.668-2.642-4.652-3.294zM71.895 48.147c1.97-.586 3.455-1.646 4.452-3.003.999-1.357 1.498-3.103 1.498-5.154 0-1.943-.466-3.675-1.398-5.154-.932-1.478-2.263-2.481-3.992-3.027-1.732-.544-4.7-.809-8.906-.809h-11.549v18h12.507c3.435 0 5.897-.399 7.388-.853zM117 16.126c0-7.802-6.325-14.126-14.127-14.126h-77.746c-7.802 0-14.127 6.324-14.127 14.126v77.748c0 7.802 6.325 14.126 14.127 14.126h77.746c7.802 0 14.127-6.324 14.127-14.126v-77.748zm-30.43 57.144c-1.157 2.356-2.589 4.173-4.292 5.451-1.704 1.277-3.841 2.446-6.41 3.098-2.569.653-5.717 1.181-9.444 1.181h-22.424v-59h22.065c4.473 0 8.059.62 10.761 1.804 2.703 1.185 4.818 3.021 6.351 5.483 1.53 2.463 2.296 5.046 2.296 7.735 0 2.502-.68 4.861-2.036 7.071-1.358 2.21-3.408 3.995-6.15 5.352 3.54 1.038 6.263 2.811 8.166 5.313 1.903 2.503 2.855 5.458 2.855 8.866-.001 2.742-.579 5.291-1.738 7.646z"></path>
    </symbol>
    <symbol id="node">
      <path fill="#83CD29" d="M114.325 80.749c-.29 0-.578-.076-.832-.224l-2.65-1.568c-.396-.221-.203-.3-.072-.345.528-.184.635-.227 1.198-.545.059-.033.136-.021.197.015l2.035 1.209c.074.041.179.041.246 0l7.937-4.581c.075-.042.122-.127.122-.215v-9.16c0-.09-.047-.173-.123-.219l-7.934-4.577c-.074-.042-.171-.042-.245 0l-7.933 4.578c-.076.045-.125.131-.125.218v9.16c0 .088.049.171.125.212l2.174 1.257c1.18.589 1.903-.105 1.903-.803v-9.045c0-.127.103-.228.23-.228h1.007c.125 0 .229.101.229.228v9.045c0 1.574-.857 2.477-2.35 2.477-.459 0-.82 0-1.828-.496l-2.081-1.198c-.515-.298-.832-.854-.832-1.448v-9.16c0-.595.317-1.15.832-1.446l7.937-4.587c.502-.283 1.169-.283 1.667 0l7.937 4.587c.514.297.833.852.833 1.446v9.16c0 .595-.319 1.148-.833 1.448l-7.937 4.582c-.252.147-.539.223-.834.223M116.778 74.438c-3.475 0-4.202-1.595-4.202-2.932 0-.126.103-.229.23-.229h1.026c.115 0 .21.082.228.194.154 1.045.617 1.572 2.718 1.572 1.671 0 2.383-.378 2.383-1.266 0-.512-.202-.891-2.8-1.146-2.172-.215-3.515-.694-3.515-2.433 0-1.601 1.35-2.557 3.612-2.557 2.543 0 3.801.883 3.96 2.777.006.064-.017.127-.06.176-.044.045-.104.073-.168.073h-1.031c-.107 0-.201-.075-.223-.179-.248-1.1-.848-1.451-2.479-1.451-1.825 0-2.037.637-2.037 1.112 0 .577.25.745 2.715 1.071 2.439.323 3.598.779 3.598 2.494.001 1.733-1.441 2.724-3.955 2.724"></path><path fill="#404137" d="M97.982 68.43c.313-.183.506-.517.506-.88v-2.354c0-.362-.192-.696-.506-.879l-8.364-4.856c-.315-.183-.703-.184-1.019-.002l-8.416 4.859c-.314.182-.508.517-.508.88v9.716c0 .365.196.703.514.884l8.363 4.765c.308.177.686.178.997.006l5.058-2.812c.161-.09.261-.258.262-.44.001-.184-.097-.354-.256-.445l-8.468-4.86c-.159-.091-.256-.259-.256-.44v-3.046c0-.182.097-.349.254-.439l2.637-1.52c.156-.091.35-.091.507 0l2.637 1.52c.158.091.255.258.255.439v2.396c0 .183.097.351.254.441.158.091.352.091.51-.001l5.039-2.932"></path><path fill="#83CD29" d="M88.984 67.974c.061-.034.135-.034.195 0l1.615.933c.06.035.097.1.097.169v1.865c0 .07-.037.134-.097.169l-1.615.932c-.06.035-.135.035-.195 0l-1.614-.932c-.061-.035-.098-.099-.098-.169v-1.865c0-.069.037-.134.098-.169l1.614-.933"></path><path fill="#404137" d="M67.083 71.854c0 .09-.048.174-.127.22l-2.89 1.666c-.079.046-.176.046-.254 0l-2.89-1.666c-.079-.046-.127-.13-.127-.22v-3.338c0-.09.049-.175.127-.221l2.89-1.668c.079-.047.176-.047.255 0l2.891 1.668c.078.046.126.131.126.221v3.338zm.781-24.716c-.157-.087-.349-.085-.505.006-.155.092-.251.258-.251.438v12.915c0 .126-.068.244-.177.308-.11.063-.246.063-.356 0l-2.108-1.215c-.314-.181-.701-.181-1.015 0l-8.418 4.858c-.315.182-.509.518-.509.881v9.719c0 .363.194.698.508.881l8.418 4.861c.314.182.702.182 1.017 0l8.42-4.861c.314-.183.508-.518.508-.881v-24.227c0-.368-.2-.708-.521-.888l-5.011-2.795"></path><path fill="#83CD29" d="M38.238 59.407c.314-.182.702-.182 1.016 0l8.418 4.857c.314.182.508.518.508.881v9.722c0 .363-.194.699-.508.881l-8.417 4.861c-.314.181-.702.181-1.017 0l-8.415-4.861c-.314-.182-.508-.518-.508-.881v-9.723c0-.362.194-.698.508-.88l8.415-4.857"></path><path fill="#404137" d="M22.93 65.064c0-.366-.192-.702-.508-.883l-8.415-4.843c-.144-.084-.303-.127-.464-.133h-.087c-.16.006-.32.049-.464.133l-8.416 4.843c-.313.181-.509.517-.509.883l.018 13.04c0 .182.095.351.254.439.156.094.349.094.505 0l5-2.864c.316-.188.509-.519.509-.882v-6.092c0-.364.192-.699.507-.881l2.13-1.226c.158-.093.332-.137.508-.137.174 0 .352.044.507.137l2.128 1.226c.315.182.509.517.509.881v6.092c0 .363.195.696.509.882l5 2.864c.157.094.353.094.508 0 .155-.089.252-.258.252-.439l.019-13.04"></path>
    </symbol>
    <symbol id="php">
      <path fill="#6181B6" d="M64 33.039c-33.74 0-61.094 13.862-61.094 30.961s27.354 30.961 61.094 30.961 61.094-13.862 61.094-30.961-27.354-30.961-61.094-30.961zm-15.897 36.993c-1.458 1.364-3.077 1.927-4.86 2.507-1.783.581-4.052.461-6.811.461h-6.253l-1.733 10h-7.301l6.515-34h14.04c4.224 0 7.305 1.215 9.242 3.432 1.937 2.217 2.519 5.364 1.747 9.337-.319 1.637-.856 3.159-1.614 4.515-.759 1.357-1.75 2.624-2.972 3.748zm21.311 2.968l2.881-14.42c.328-1.688.208-2.942-.361-3.555-.57-.614-1.782-1.025-3.635-1.025h-5.79l-3.731 19h-7.244l6.515-33h7.244l-1.732 9h6.453c4.061 0 6.861.815 8.402 2.231s2.003 3.356 1.387 6.528l-3.031 15.241h-7.358zm40.259-11.178c-.318 1.637-.856 3.133-1.613 4.488-.758 1.357-1.748 2.598-2.971 3.722-1.458 1.364-3.078 1.927-4.86 2.507-1.782.581-4.053.461-6.812.461h-6.253l-1.732 10h-7.301l6.514-34h14.041c4.224 0 7.305 1.215 9.241 3.432 1.935 2.217 2.518 5.418 1.746 9.39zM95.919 54h-5.001l-2.727 14h4.442c2.942 0 5.136-.29 6.576-1.4 1.442-1.108 2.413-2.828 2.918-5.421.484-2.491.264-4.434-.66-5.458-.925-1.024-2.774-1.721-5.548-1.721zM38.934 54h-5.002l-2.727 14h4.441c2.943 0 5.136-.29 6.577-1.4 1.441-1.108 2.413-2.828 2.917-5.421.484-2.491.264-4.434-.66-5.458s-2.772-1.721-5.546-1.721z"></path>
    </symbol>
    <symbol id="laravel">
      <path fill="#FD4F31" d="M14.887 18.316l2.72 4.523 2.507 4.182c1.301 2.17 2.602 4.34 3.901 6.51l2.662 4.44 3.882 6.465 4.749 7.936c1.369 2.285 2.741 4.569 4.112 6.853l.184.267c.199.062.357.009.521-.03 1.807-.434 3.614-.865 5.421-1.296 2.931-.7 5.862-1.398 8.792-2.099l4.592-1.098c2.962-.708 5.926-1.414 8.889-2.124 2.996-.716 5.99-1.436 8.985-2.154 1.514-.363 3.028-.725 4.543-1.086l8.792-2.096 9.575-2.28.517-.14-.141-.28c-.869-1.232-1.742-2.462-2.613-3.693l-2.581-3.654-2.76-3.898-2.639-3.737-2.614-3.693-2.701-3.816-2.646-3.731-1.396-1.969c-.213-.303-.383-.628-.497-.982-.275-.856.039-1.425.538-1.846.324-.274.696-.474 1.1-.593.562-.166 1.128-.324 1.702-.432 1.151-.217 2.309-.402 3.465-.594 1.304-.217 2.609-.424 3.915-.639.825-.136 1.65-.279 2.476-.419l3.367-.567c1.089-.183 2.18-.364 3.269-.543l3.568-.583 2.477-.417c.94-.157 1.882-.314 2.823-.468 1.174-.191 2.346-.384 3.521-.568.698-.109 1.399-.148 2.093.052.521.151.994.395 1.436.706l.61.426c.061-.141-.027-.217-.067-.298-.881-1.782-2.082-3.314-3.606-4.592-1.419-1.187-3.012-2.06-4.773-2.616-1.04-.33-2.109-.483-3.199-.565l-.535-.08h-79.262l-.429.069c-.954.075-1.892.217-2.815.47-2.021.555-3.817 1.519-5.401 2.885-.932.803-1.745 1.707-2.435 2.727-1.065 1.574-1.792 3.285-2.156 5.189l.461.803c1.033 1.726 2.067 3.449 3.101 5.173zM20.128 106.141c.97.373 1.972.635 3.006.762l1.047.047c.163.021.32.05.48.05h32.288c-.052 0-.099-.149-.157-.25-1.271-2.168-2.554-4.296-3.81-6.472-1.581-2.742-3.147-5.477-4.705-8.233-1.664-2.944-3.313-5.89-4.965-8.842-1.569-2.807-3.135-5.611-4.698-8.42-.944-1.698-1.883-3.396-2.825-5.095l-.252-.388-.458.091c-.908.234-1.814.471-2.721.709-1.262.332-2.522.67-3.785 1-2.834.738-5.669 1.471-8.503 2.207-2.883.748-5.704 1.498-8.589 2.243-.175.046.519.062-.481.092v17.905c1 .104.136.294.158.477.066.53.085 1.064.179 1.59.349 1.957 1.089 3.747 2.224 5.378 1.664 2.392 3.852 4.103 6.567 5.149zM14.006 65.751c3.336-.793 6.672-1.585 10.008-2.377l4.396-1.039c.732-.174 1.468-.341 2.194-.537.646-.175.727-.389.394-.973-.481-.844-.97-1.682-1.458-2.522l-4.288-7.383-4.287-7.385c-1.454-2.504-2.909-5.009-4.364-7.513l-3.736-6.427-1.553-2.781c-.1-.17.689-.371-.311-.461v40.135c0-.027.204-.05.333-.081l2.672-.656zM116.677 94.439c-1.308.465-2.615.933-3.923 1.401-2.977 1.067-5.953 2.134-8.93 3.202-1.652.593-3.304 1.193-4.959 1.784-3.371 1.204-6.744 2.403-10.117 3.604-1.955.696-3.91 1.325-5.863 2.024-.535.193-1.063.546-1.593.546h22.431l.484-.046c.569-.024 1.131-.078 1.691-.181 2.303-.421 4.365-1.359 6.191-2.815 1.402-1.118 2.544-2.456 3.438-4.016.92-1.606 1.466-3.329 1.728-5.153.023-.157.072-.328-.06-.491-.184-.014-.349.08-.518.141zM114.75 64.318c-.99-1.353-1.98-2.704-2.968-4.058-1.362-1.869-2.723-3.74-4.083-5.609-.553-.759-1.113-1.512-1.654-2.279-.162-.231-.348-.292-.601-.224l-.145.042c-2.505.608-5.011 1.216-7.517 1.823l-4.489 1.089-8.782 2.133c-2.896.704-5.791 1.408-8.687 2.111-3.01.729-6.02 1.456-9.028 2.186-2.961.719-5.921 1.44-8.881 2.16-2.863.695-5.726 1.391-8.589 2.085-1.513.367-3.025.733-4.537 1.103-.223.054-.463.067-.699.247l.202.385c1.268 2.19 2.535 4.379 3.806 6.567 1.438 2.478 2.878 4.955 4.321 7.43 1.587 2.72 3.178 5.439 4.768 8.159.913 1.562 1.821 3.127 2.742 4.685 1.023 1.73 2.051 3.458 3.094 5.178.312.515.666 1.006 1.023 1.49.24.323.537.599.887.81.36.218.75.286 1.159.194.212-.048.419-.118.624-.189l.754-.279c2.74-.938 5.48-1.875 8.223-2.809 2.139-.729 4.28-1.453 6.421-2.177 2.125-.72 4.251-1.438 6.376-2.155 2.109-.713 4.219-1.425 6.329-2.137 2.157-.729 4.314-1.458 6.471-2.189 2.647-.898 5.294-1.8 7.942-2.696 2.553-.864 5.107-1.723 7.662-2.584.156-.053.329-.075.459-.247l.016-.372c0-5.296-.001-10.594.006-15.891 0-.283-.076-.511-.246-.738-.801-1.077-1.588-2.162-2.379-3.244zM114.311 14.411c-.595-.753-1.352-.992-2.279-.75-.404.106-.819.172-1.23.248-1.351.247-2.701.49-4.052.735-1.976.359-3.951.722-5.928 1.077-1.564.282-3.131.558-4.696.833l-6.281 1.099c-.264.046-.53.092-.783.173-.37.119-.478.351-.309.699.139.284.311.556.497.812 1.298 1.79 2.604 3.576 3.908 5.362 1.798 2.463 3.598 4.926 5.397 7.388 1.522 2.083 3.046 4.166 4.57 6.248 1.197 1.637 2.395 3.272 3.593 4.908l.237.286c3.447-.853 6.889-1.703 10.39-2.568l.024-.538c0-7.208-.001-14.415.006-21.622 0-.318-.078-.574-.277-.826-.875-1.103-1.732-2.219-2.597-3.33l-.19-.234zM117.106 49.333c-1.572.377-3.149.737-4.759 1.163.171.303 4.585 6.262 4.842 6.544l.162.089.018-.363v-2.51c.002-1.455.006-2.911.002-4.366 0-.178.049-.367-.072-.547l-.193-.01zM12.93 127v-17.133h3.633v14.133h6.949v3h-10.582zM36.977 127l-1.242-4.078h-6.246l-1.243 4.078h-3.914l6.047-17.203h4.441l6.071 17.203h-3.914zm-2.11-7.125c-1.148-3.695-1.795-5.785-1.939-6.27s-.248-.867-.311-1.148c-.258 1-.996 3.473-2.215 7.418h4.465zM46.68 120.426v6.574h-3.633v-17.133h4.992c2.328 0 4.051.424 5.168 1.271s1.676 2.135 1.676 3.861c0 1.008-.277 1.904-.832 2.689s-1.34 1.4-2.355 1.846c2.578 3.852 4.258 6.34 5.039 7.465h-4.031l-4.09-6.574h-1.934zm0-2.953h1.172c1.148 0 1.996-.191 2.543-.574s.82-.984.82-1.805c0-.812-.279-1.391-.838-1.734s-1.424-.516-2.596-.516h-1.101v4.629zM69.379 127l-1.242-4.078h-6.246l-1.243 4.078h-3.914l6.047-17.203h4.441l6.071 17.203h-3.914zm-2.109-7.125c-1.148-3.695-1.795-5.785-1.939-6.27s-.248-.867-.311-1.148c-.258 1-.996 3.473-2.215 7.418h4.465zM85.223 109.867h3.668l-5.825 17.133h-3.961l-5.812-17.133h3.668l3.223 10.195c.18.602.365 1.303.557 2.104s.311 1.357.357 1.67c.086-.719.379-1.977.879-3.773l3.246-10.196zM100.914 127h-9.867v-17.133h9.867v2.977h-6.234v3.762h5.801v2.977h-5.801v4.417h6.234v3zM104.488 127v-17.133h3.633v14.133h6.949v3h-10.582z"></path>
    </symbol>
    <symbol id="sass">
      <path fill-rule="evenodd" clip-rule="evenodd" fill="#CB6699" d="M1.219 56.156c0 .703.207 1.167.323 1.618.756 2.933 2.381 5.45 4.309 7.746 2.746 3.272 6.109 5.906 9.554 8.383 2.988 2.148 6.037 4.248 9.037 6.38.515.366 1.002.787 1.561 1.236-.481.26-.881.489-1.297.7-3.959 2.008-7.768 4.259-11.279 6.986-2.116 1.644-4.162 3.391-5.607 5.674-2.325 3.672-3.148 7.584-1.415 11.761.506 1.22 1.278 2.274 2.367 3.053.353.252.749.502 1.162.6 1.058.249 2.136.412 3.207.609l3.033-.002c3.354-.299 6.407-1.448 9.166-3.352 4.312-2.976 7.217-6.966 8.466-12.087.908-3.722.945-7.448-.125-11.153-.099-.344-.224-.681-.354-1.014-.13-.333-.283-.657-.463-1.072l6.876-3.954.103.088c-.125.409-.258.817-.371 1.23-.817 2.984-1.36 6.02-1.165 9.117.208 3.3 1.129 6.389 3.061 9.146 1.562 2.23 5.284 2.313 6.944.075.589-.795 1.16-1.626 1.589-2.513 1.121-2.315 2.159-4.671 3.23-7.011l.187-.428c-.077 1.108-.167 2.081-.208 3.055-.064 1.521.025 3.033.545 4.48.445 1.238 1.202 2.163 2.62 2.326.97.111 1.743-.333 2.456-.896 1.114-.879 2.019-1.965 2.691-3.199 1.901-3.491 3.853-6.961 5.576-10.54 1.864-3.871 3.494-7.855 5.225-11.792l.286-.698c.409 1.607.694 3.181 1.219 4.671.61 1.729 1.365 3.417 2.187 5.058.389.775.344 1.278-.195 1.928-2.256 2.72-4.473 5.473-6.692 8.223-.491.607-.98 1.225-1.389 1.888-.247.403-.411.894-.48 1.364-.133.898.422 1.764 1.383 1.971.878.189 1.813.259 2.708.193 3.097-.228 5.909-1.315 8.395-3.157 3.221-2.386 4.255-5.642 3.475-9.501-.211-1.047-.584-2.065-.947-3.074-.163-.455-.174-.774.123-1.198 2.575-3.677 4.775-7.578 6.821-11.569.081-.157.164-.314.306-.482.663 3.45 1.661 6.775 3.449 9.792-.912.879-1.815 1.676-2.632 2.554-1.799 1.934-3.359 4.034-4.173 6.595-.35 1.104-.619 2.226-.463 3.405.242 1.831 1.742 3.021 3.543 2.604 3.854-.892 7.181-2.708 9.612-5.925 1.636-2.166 1.785-4.582 1.1-7.113-.188-.688-.411-1.365-.651-2.154.951-.295 1.878-.649 2.837-.868 4.979-1.136 9.904-.938 14.702.86 2.801 1.05 5.064 2.807 6.406 5.571 1.639 3.379.733 6.585-2.452 8.721-.297.199-.637.356-.883.605-.151.153-.242.459-.205.67.021.123.346.277.533.275 1.047-.008 1.896-.557 2.711-1.121 2.042-1.413 3.532-3.314 3.853-5.817l.063-.188-.077-1.63c-.031-.094.023-.187.016-.258-.434-3.645-2.381-6.472-5.213-8.688-3.28-2.565-7.153-3.621-11.249-3.788-3.338-.136-6.619.36-9.765 1.503-.897.325-1.786.71-2.688 1.073-.121-.219-.251-.429-.358-.646-.926-1.896-2.048-3.708-2.296-5.882-.176-1.544-.392-3.086-.025-4.613.353-1.469.813-2.913 1.246-4.362.223-.746.066-1.164-.646-1.5-.248-.117-.518-.219-.786-.258-1.75-.254-3.476-.109-5.171.384-.6.175-1.036.511-1.169 1.175-.076.381-.231.746-.339 1.122-.443 1.563-.757 3.156-1.473 4.645-1.794 3.735-3.842 7.329-5.938 10.897-.227.385-.466.763-.752 1.23-.736-1.54-1.521-2.922-1.759-4.542-.269-1.832-.481-3.661-.025-5.479.339-1.356.782-2.687 1.19-4.025.193-.636.104-.97-.472-1.305-.291-.169-.62-.319-.948-.368-1.815-.269-3.603-.128-5.354.438-.543.176-.828.527-.994 1.087-.488 1.652-.904 3.344-1.589 4.915-2.774 6.36-5.628 12.687-8.479 19.013-.595 1.321-1.292 2.596-1.963 3.882-.17.326-.418.613-.63.919-.17-.201-.236-.339-.235-.477.005-.813-.092-1.65.063-2.436.469-2.378 1.009-4.743 1.578-7.099.47-1.946 1.017-3.874 1.538-5.807.175-.647.178-1.252-.287-1.796-.781-.911-2.413-1.111-3.381-.409l-.428.242.083-.69c.204-1.479.245-2.953-.161-4.41-.506-1.816-1.802-2.861-3.686-2.803-.878.027-1.8.177-2.613.497-3.419 1.34-6.048 3.713-8.286 6.568-.203.259-.471.495-.757.654-2.893 1.604-5.795 3.188-8.696 4.778l-3.229 1.769c-.866-.826-1.653-1.683-2.546-2.41-2.727-2.224-5.498-4.393-8.244-6.592-2.434-1.949-4.792-3.979-6.596-6.56-1.342-1.92-2.207-4.021-2.29-6.395-.105-3.025.753-5.789 2.293-8.362 1.97-3.292 4.657-5.934 7.611-8.327 3.125-2.53 6.505-4.678 10.008-6.639 4.901-2.743 9.942-5.171 15.347-6.774 5.542-1.644 11.165-2.585 16.965-1.929 2.28.258 4.494.78 6.527 1.895 1.557.853 2.834 1.97 3.428 3.716.586 1.718.568 3.459.162 5.204-.825 3.534-2.76 6.447-5.195 9.05-3.994 4.267-8.866 7.172-14.351 9.091-3.165 1.107-6.421 1.802-9.765 2.083-2.729.229-5.401-.013-7.985-.962-1.711-.629-3.201-1.591-4.399-2.987-.214-.25-.488-.521-.887-.287-.391.23-.46.602-.329.979.219.626.421 1.278.762 1.838.857 1.405 2.107 2.424 3.483 3.298 2.643 1.681 5.597 2.246 8.66 2.377 4.648.201 9.183-.493 13.654-1.74 6.383-1.78 11.933-4.924 16.384-9.884 3.706-4.13 6.353-8.791 6.92-14.419.277-2.747-.018-5.438-1.304-7.944-1.395-2.715-3.613-4.734-6.265-6.125-3.862-2.025-8.03-3.204-12.332-3.204h-4.31c-5.21 0-10.247 1.493-15.143 3.274-3.706 1.349-7.34 2.941-10.868 4.703-7.683 3.839-14.838 8.468-20.715 14.833-2.928 3.171-5.407 6.67-6.833 10.79-.417 1.206-.813 2.499-1.111 3.746m27.839 36.013c-.333 4.459-2.354 8.074-5.657 11.002-1.858 1.646-3.989 2.818-6.471 3.23-.9.149-1.821.185-2.694-.188-1.245-.532-1.524-1.637-1.548-2.814-.037-1.876.62-3.572 1.521-5.186 1.176-2.104 2.9-3.708 4.741-5.206 2.9-2.361 6.046-4.359 9.268-6.245l.243-.1c.498 1.84.735 3.657.597 5.507zm25.158-19.379c-.235 1.424-.529 2.849-.945 4.229-1.438 4.777-3.285 9.406-5.282 13.973-.369.845-.906 1.616-1.373 2.417-.072.124-.179.231-.283.334-.578.571-1.126.541-1.418-.206-.34-.868-.549-1.797-.729-2.716-.121-.617-.092-1.265-.13-1.897.039-4.494 1.41-8.578 3.736-12.38.959-1.568 2.003-3.062 3.598-4.054.49-.305 1.04-.55 1.595-.706.85-.239 1.372.154 1.231 1.006zm17.164 21.868l6.169-7.203c.257 2.675-4.29 8.015-6.169 7.203zm19.703-4.847c-.436.25-.911.43-1.358.661-.409.212-.544-.002-.556-.354-.008-.239.027-.489.093-.721.833-2.938 2.366-5.446 4.647-7.486l.16-.082c1.085 3.035-.169 6.368-2.986 7.982z"></path>
    </symbol>
    <symbol id="wordpress">
    <path fill-rule="evenodd" clip-rule="evenodd" fill="#337BA2" d="M43.257 121.233c.079 1.018.029 2.071.299 3.037.115.408.9.629 1.381.935l.625.401c-.235.137-.469.389-.707.392-1.866.033-3.732.032-5.598.002-.248-.004-.491-.237-.735-.364.198-.143.388-.391.597-.408 1.251-.105 1.632-.865 1.626-1.989-.011-2.066-.006-4.134.003-6.202.005-1.152-.322-1.993-1.679-2.045-.188-.008-.366-.296-.548-.453.182-.111.366-.321.546-.318 2.39.029 4.79-.024 7.167.177 1.873.159 3.107 1.455 3.234 2.949.138 1.639-.703 2.764-2.605 3.486l-.729.272c1.225 1.158 2.31 2.29 3.516 3.272.535.437 1.293.697 1.989.817 1.393.238 2.149-.361 2.187-1.742.061-2.229.032-4.461.011-6.691-.01-1.022-.449-1.697-1.589-1.753-.215-.01-.42-.253-.629-.388.239-.14.478-.4.715-.399 2.432.02 4.875-.055 7.291.161 4.123.366 6.42 3.797 5.214 7.588-.735 2.312-2.495 3.619-4.759 3.773-3.958.27-7.938.215-11.909.243-.316.002-.706-.341-.944-.623-.914-1.085-1.776-2.213-2.668-3.316-.27-.334-.571-.641-.858-.961l-.444.147zm13.119-5.869c0 2.785-.034 5.484.036 8.18.011.414.41 1.039.78 1.187 1.457.581 3.812-.368 4.47-1.842.881-1.973.988-4.05-.203-5.922-1.175-1.847-3.132-1.663-5.083-1.603zm-13.021 4.561c1.262.032 2.653.313 3.192-1.073.302-.777.234-1.982-.183-2.69-.633-1.076-1.906-.888-3.01-.752l.001 4.515z"></path><path fill-rule="evenodd" clip-rule="evenodd" fill="#515151" d="M96.77 119.35c.834-.18 1.661-.154 2.198-.537.451-.32.563-1.116.908-1.886.199.357.386.539.39.724.025 1.38.03 2.761 0 4.141-.005.216-.226.427-.347.641-.136-.114-.339-.2-.399-.346-.733-1.771-.729-1.772-2.843-1.583.309 1.382-.763 3.149.89 4.058.843.463 2.203.371 3.189.068.841-.256 1.48-1.171 2.212-1.798v3.096c-.405.036-.712.086-1.021.086-4.141.006-8.282-.012-12.422.019-.714.006-1.197-.174-1.633-.773-.857-1.182-1.799-2.302-2.725-3.432-.232-.283-.534-.508-1.021-.962 0 1.154-.042 1.981.012 2.802.056.858.469 1.427 1.418 1.534.279.032.529.325.792.5-.271.105-.54.298-.812.303-1.827.026-3.653.025-5.48.001-.28-.004-.558-.173-.866-.275l.156-.303c2.244-.906 2.25-.906 2.248-3.508-.002-1.623-.014-3.246-.039-4.87-.017-1.121-.321-2.01-1.689-2.058-.197-.007-.384-.287-.577-.441.226-.113.453-.325.678-.323 2.311.022 4.635-.054 6.93.16 2.512.234 4.065 2.329 3.132 4.257-.51 1.053-1.688 1.783-2.725 2.818.984.9 2.117 2.194 3.491 3.135 1.941 1.33 3.268.571 3.317-1.748.041-1.947-.007-3.896-.015-5.845-.004-1.155-.361-1.994-1.717-2.013-.185-.003-.367-.2-.586-.33.705-.52 7.499-.709 10.448-.332l.19 3.214-.333.136c-.686-.717-.601-2.199-2.02-2.204-1.084-.005-2.168-.119-3.332-.189.003 1.356.003 2.59.003 4.063zm-12.647.566c2.61.105 3.646-.603 3.584-2.364-.061-1.698-1.195-2.383-3.584-2.121v4.485z"></path><path fill-rule="evenodd" clip-rule="evenodd" fill="#3179A1" d="M11.555 120.682c.996-2.947 1.979-5.897 3.003-8.834.141-.404.486-.737.737-1.104.248.378.587.725.729 1.14.931 2.719 1.817 5.451 2.722 8.179.072.219.165.43.375.969.928-2.813 1.787-5.308 2.564-7.829.27-.873-.081-1.504-1.097-1.618-.335-.039-.66-.17-1.051-.274.676-.749 5.957-.804 6.827-.108-.236.112-.424.271-.618.279-1.65.064-2.414 1.097-2.884 2.521-1.258 3.81-2.54 7.611-3.817 11.415-.133.395-.3.778-.452 1.166l-.421.03-3.579-10.821-3.619 10.788-.354.022c-.185-.401-.412-.79-.547-1.207-1.167-3.581-2.319-7.167-3.474-10.751-.495-1.539-.99-3.069-3.012-3.167-.132-.006-.253-.229-.38-.35.158-.13.316-.373.476-.375 2.272-.024 4.546-.024 6.818.001.158.001.313.247.47.379-.169.126-.319.309-.508.367-1.82.55-1.951.761-1.378 2.526.723 2.233 1.468 4.457 2.204 6.686l.266-.03z"></path><path fill-rule="evenodd" clip-rule="evenodd" fill="#4D4D4D" d="M65.484 111.25c.279-.241.435-.494.587-.491 2.957.044 5.938-.093 8.864.247 2.768.321 4.301 2.919 3.466 5.359-.748 2.189-2.593 2.874-4.68 3.064-.881.081-1.776.013-2.824.013.093 1.453.14 2.78.275 4.098.113 1.114.863 1.56 1.923 1.65.239.021.457.288.684.442-.25.126-.498.36-.75.363-2.191.029-4.384.028-6.575.002-.263-.003-.523-.219-.784-.336.218-.165.432-.463.656-.472 1.463-.056 2.012-.964 2.03-2.235.044-3.081.04-6.162.002-9.243-.016-1.31-.649-2.148-2.072-2.206-.212-.008-.422-.13-.802-.255zm5.523 6.706c2.682.278 3.703.022 4.349-1.167.648-1.192.65-2.439-.116-3.566-1.059-1.559-2.679-1.098-4.233-1.154v5.887z"></path><path fill-rule="evenodd" clip-rule="evenodd" fill="#3279A1" d="M31.076 126.463c-2.396-.104-4.348-.856-5.794-2.647-2.053-2.542-1.741-5.994.711-8.192 2.645-2.37 7.018-2.472 9.733-.171 1.838 1.559 2.709 3.533 2.111 5.953-.675 2.73-2.601 4.192-5.218 4.856-.546.137-1.122.149-1.543.201zm4.544-6.249l-.224-.147c-.149-.709-.236-1.439-.458-2.125-.642-1.971-1.986-2.945-3.963-2.949-1.97-.004-3.295.975-3.939 2.967-.572 1.771-.498 3.526.383 5.18 1.315 2.468 4.829 2.931 6.549.736.802-1.023 1.116-2.43 1.652-3.662z"></path><path fill-rule="evenodd" clip-rule="evenodd" fill="#505050" d="M122.748 114.317l.893-.782v4.376l-.259.195c-.209-.295-.498-.562-.615-.891-.591-1.655-1.865-2.553-3.319-2.117-.499.149-1.099.649-1.232 1.11-.109.376.285 1.12.671 1.374 1.008.664 2.131 1.156 3.214 1.703 2.356 1.192 3.198 2.845 2.401 4.736-.809 1.921-3.263 2.915-5.462 2.173-.606-.206-1.167-.544-1.728-.811l-.857 1.126-.379-.116c0-1.477-.009-2.954.015-4.431.002-.143.215-.282.33-.423.18.218.448.41.527.66.523 1.656 1.53 2.756 3.325 2.94 1.023.105 2.023-.021 2.378-1.187.324-1.067-.42-1.669-1.219-2.124-.879-.5-1.808-.909-2.708-1.37-.395-.203-.798-.404-1.153-.665-1.257-.927-1.753-2.263-1.381-3.618.332-1.211 1.523-2.237 2.997-2.28 1.091-.031 2.195.25 3.561.422zM106.479 125.344c-.166.33-.258.607-.429.821-.103.128-.356.25-.49.208-.127-.04-.262-.294-.265-.456-.021-1.299-.021-2.599.001-3.896.002-.159.178-.314.274-.471.184.117.446.193.537.362.169.314.208.696.356 1.024.668 1.482 2.021 2.409 3.573 2.184.649-.093 1.45-.586 1.772-1.138.434-.741-.086-1.504-.814-1.925-.979-.566-1.993-1.075-3.009-1.571-2.297-1.121-3.266-2.972-2.443-4.719.818-1.737 3.33-2.46 5.429-1.556.256.11.499.25.7.354l1.078-.886c.113.317.185.426.186.535.008 1.216.005 2.431.005 3.646l-.317.212c-.211-.27-.504-.509-.619-.814-.573-1.532-1.48-2.381-2.81-2.219-.624.075-1.419.504-1.726 1.018-.45.755.2 1.361.885 1.729.963.519 1.949.992 2.926 1.483 2.418 1.213 3.269 2.898 2.434 4.824-.813 1.876-3.346 2.847-5.517 2.077-.564-.199-1.087-.52-1.717-.826z"></path><path fill-rule="evenodd" clip-rule="evenodd" fill="#494949" d="M65.261 1.395c-26.781-.478-49.158 21.253-49.165 47.605-.008 27.11 21.338 48.739 48.077 48.699 26.49-.039 47.932-21.587 47.932-48.167-.001-26.148-21.345-47.682-46.844-48.137zm-1.148 93.887c-25.326.006-45.694-20.529-45.693-46.067.001-24.88 20.685-45.48 45.674-45.489 25.432-.008 45.695 20.654 45.687 46.587-.008 24.483-20.807 44.964-45.668 44.969zM88.508 35.935c-.994-1.638-2.216-3.227-2.778-5.013-.64-2.032-1.171-4.345-.832-6.382.576-3.454 3.225-5.169 6.812-5.497-19.624-18.213-50.462-11.694-61.825 8.095 4.374-.203 8.55-.468 12.729-.524.791-.011 2.1.657 2.286 1.277.416 1.385-.748 1.868-1.986 1.963-1.301.102-2.604.199-4.115.314 4.99 14.865 9.905 29.509 14.935 44.494.359-.587.507-.752.572-.945 2.762-8.255 5.54-16.505 8.232-24.784.246-.755.124-1.755-.146-2.531-1.424-4.111-3.13-8.133-4.379-12.294-.855-2.849-1.988-4.692-5.355-4.362-.574.056-1.273-1.178-1.916-1.816.777-.463 1.548-1.316 2.332-1.328 6.857-.104 13.716-.104 20.572.006.786.013 1.557.889 2.335 1.364-.681.622-1.267 1.554-2.063 1.794-1.276.385-2.691.312-4.218.448 4.995 14.857 9.887 29.412 14.953 44.484 2.266-7.524 4.374-14.434 6.422-21.36 1.83-6.182.74-11.957-2.567-17.403zM52.719 88.149c-.092.267-.097.563-.168 1.007 8.458 2.344 16.75 2.175 25.24-.685l-12.968-35.52c-4.151 12.064-8.131 23.63-12.104 35.198zM46.184 86.543c-6.554-17.979-13.022-35.724-19.538-53.596-8.814 17.217-2.109 43.486 19.538 53.596zM100.636 31.14c-.27 2.994-.082 6.327-.941 9.362-2.023 7.152-4.496 14.181-6.877 21.229-2.588 7.66-5.28 15.286-7.927 22.927 12.437-7.372 19.271-18.253 20.359-32.555.62-8.14-2.188-19.412-4.614-20.963z"></path>
    

    </symbol>


</svg>
